<svg xmlns="http://www.w3.org/2000/svg" viewBox="0 0 1504 512"><defs><style>.cls-1{fill:#d57b00;}.cls-2{fill:#ffc93d;}.cls-3{fill:#039471;}.cls-4{fill:#32ef90;}.cls-5{fill:#784aae;}.cls-6{fill:#c885ee;}.cls-7{fill:#2773ba;}.cls-8{fill:#45bff8;}.cls-9{fill:#b1bfca;}.cls-10{fill:#fff;}.cls-11{fill:#029571;}.cls-12{fill:#018e70;}</style></defs><title>ATLAS</title><g id="Ebene_2" data-name="Ebene 2"><g id="Ebene_1-2" data-name="Ebene 1"><polygon class="cls-1" points="1088.9 20.34 1083.4 20.34 1083.4 9.78 871.39 9.78 871.39 20.34 865.89 20.34 865.89 52.97 871.39 52.97 871.39 63.52 1083.4 63.52 1083.4 52.97 1088.9 52.97 1088.9 20.34"/><polygon class="cls-2" points="1088.9 13.97 1083.4 13.97 1083.4 3.41 871.45 3.41 871.45 13.97 865.96 13.97 865.96 46.6 871.45 46.6 871.45 57.15 1083.4 57.15 1083.4 46.6 1088.9 46.6 1088.9 13.97"/><polygon class="cls-3" points="1088.9 92.34 1083.4 92.34 1083.4 81.78 871.39 81.78 871.39 92.34 865.89 92.34 865.89 124.97 871.39 124.97 871.39 135.52 1083.4 135.52 1083.4 124.97 1088.9 124.97 1088.9 92.34"/><polygon class="cls-4" points="1088.9 85.97 1083.4 85.97 1083.4 75.41 871.45 75.41 871.45 85.97 865.96 85.97 865.96 118.6 871.45 118.6 871.45 129.15 1083.4 129.15 1083.4 118.6 1088.9 118.6 1088.9 85.97"/><polygon class="cls-5" points="1088.9 164.34 1083.4 164.34 1083.4 153.78 871.39 153.78 871.39 164.34 865.89 164.34 865.89 196.97 871.39 196.97 871.39 207.52 1083.4 207.52 1083.4 196.97 1088.9 196.97 1088.9 164.34"/><polygon class="cls-6" points="1088.9 157.97 1083.4 157.97 1083.4 147.41 871.45 147.41 871.45 157.97 865.96 157.97 865.96 190.6 871.45 190.6 871.45 201.15 1083.4 201.15 1083.4 190.6 1088.9 190.6 1088.9 157.97"/><polygon class="cls-7" points="1088.9 242.34 1083.4 242.34 1083.4 231.78 871.39 231.78 871.39 242.34 865.89 242.34 865.89 274.97 871.39 274.97 871.39 285.52 1083.4 285.52 1083.4 274.97 1088.9 274.97 1088.9 242.34"/><polygon class="cls-8" points="1088.9 235.97 1083.4 235.97 1083.4 225.41 871.45 225.41 871.45 235.97 865.96 235.97 865.96 268.6 871.45 268.6 871.45 279.15 1083.4 279.15 1083.4 268.6 1088.9 268.6 1088.9 235.97"/><polygon class="cls-9" points="1088.9 320.34 1083.4 320.34 1083.4 309.78 871.39 309.78 871.39 320.34 865.89 320.34 865.89 352.97 871.39 352.97 871.39 363.52 1083.4 363.52 1083.4 352.97 1088.9 352.97 1088.9 320.34"/><polygon class="cls-10" points="1088.9 313.97 1083.4 313.97 1083.4 303.41 871.45 303.41 871.45 313.97 865.96 313.97 865.96 346.6 871.45 346.6 871.45 357.15 1083.4 357.15 1083.4 346.6 1088.9 346.6 1088.9 313.97"/><polygon class="cls-1" points="769.36 18.63 762.22 18.63 762.22 7.23 486.77 7.23 486.77 18.63 479.63 18.63 479.63 53.87 486.77 53.87 486.77 65.27 762.22 65.27 762.22 53.87 769.36 53.87 769.36 18.63"/><polygon class="cls-2" points="769.36 11.75 762.22 11.75 762.22 0.35 486.85 0.35 486.85 11.75 479.71 11.75 479.71 46.99 486.85 46.99 486.85 58.39 762.22 58.39 762.22 46.99 769.36 46.99 769.36 11.75"/><polygon class="cls-3" points="769.36 90.63 762.22 90.63 762.22 79.23 486.77 79.23 486.77 90.63 479.63 90.63 479.63 125.87 486.77 125.87 486.77 137.27 762.22 137.27 762.22 125.87 769.36 125.87 769.36 90.63"/><polygon class="cls-4" points="769.36 83.75 762.22 83.75 762.22 72.35 486.85 72.35 486.85 83.75 479.71 83.75 479.71 118.99 486.85 118.99 486.85 130.39 762.22 130.39 762.22 118.99 769.36 118.99 769.36 83.75"/><polygon class="cls-5" points="769.36 162.63 762.22 162.63 762.22 151.23 486.77 151.23 486.77 162.63 479.63 162.63 479.63 197.87 486.77 197.87 486.77 209.27 762.22 209.27 762.22 197.87 769.36 197.87 769.36 162.63"/><polygon class="cls-6" points="769.36 155.75 762.22 155.75 762.22 144.35 486.85 144.35 486.85 155.75 479.71 155.75 479.71 190.99 486.85 190.99 486.85 202.39 762.22 202.39 762.22 190.99 769.36 190.99 769.36 155.75"/><polygon class="cls-7" points="769.36 235.63 762.22 235.63 762.22 224.23 486.77 224.23 486.77 235.63 479.63 235.63 479.63 270.87 486.77 270.87 486.77 282.27 762.22 282.27 762.22 270.87 769.36 270.87 769.36 235.63"/><polygon class="cls-8" points="769.36 228.75 762.22 228.75 762.22 217.35 486.85 217.35 486.85 228.75 479.71 228.75 479.71 263.99 486.85 263.99 486.85 275.39 762.22 275.39 762.22 263.99 769.36 263.99 769.36 228.75"/><polygon class="cls-9" points="770.36 308.63 763.22 308.63 763.22 297.23 487.77 297.23 487.77 308.63 480.63 308.63 480.63 343.87 487.77 343.87 487.77 355.27 763.22 355.27 763.22 343.87 770.36 343.87 770.36 308.63"/><polygon class="cls-10" points="770.36 301.75 763.22 301.75 763.22 290.35 487.85 290.35 487.85 301.75 480.71 301.75 480.71 336.99 487.85 336.99 487.85 348.39 763.22 348.39 763.22 336.99 770.36 336.99 770.36 301.75"/><polygon class="cls-1" points="86 440 72 440 72 426 14 426 14 440 0 440 0 498 14 498 14 512 72 512 72 498 86 498 86 440"/><polygon class="cls-2" points="86 432 72 432 72 418 14 418 14 432 0 432 0 490 14 490 14 504 72 504 72 490 86 490 86 432"/><polygon class="cls-3" points="190 440 176 440 176 426 118 426 118 440 104 440 104 498 118 498 118 512 176 512 176 498 190 498 190 440"/><polygon class="cls-4" points="190 432 176 432 176 418 118 418 118 432 104 432 104 490 118 490 118 504 176 504 176 490 190 490 190 432"/><polygon class="cls-5" points="292 440 278 440 278 426 220 426 220 440 206 440 206 498 220 498 220 512 278 512 278 498 292 498 292 440"/><polygon class="cls-6" points="292 432 278 432 278 418 220 418 220 432 206 432 206 490 220 490 220 504 278 504 278 490 292 490 292 432"/><polygon class="cls-7" points="396 440 382 440 382 426 324 426 324 440 310 440 310 498 324 498 324 512 382 512 382 498 396 498 396 440"/><polygon class="cls-8" points="396 432 382 432 382 418 324 418 324 432 310 432 310 490 324 490 324 504 382 504 382 490 396 490 396 432"/><polygon class="cls-9" points="500 440 486 440 486 426 428 426 428 440 414 440 414 498 428 498 428 512 486 512 486 498 500 498 500 440"/><polygon class="cls-10" points="500 432 486 432 486 418 428 418 428 432 414 432 414 490 428 490 428 504 486 504 486 490 500 490 500 432"/><polygon class="cls-1" points="350 31 350 22 181 22 12 22 12 33 0 33 0 58 12 58 12 67 181 67 350 67 350 56 362 56 362 31 350 31"/><polygon class="cls-2" points="350 24 350 15 181 15 12 15 12 26 0 26 0 51 12 51 12 60 181 60 350 60 350 49 362 49 362 24 350 24"/><polygon class="cls-3" points="350 103 350 94 181 94 12 94 12 105 0 105 0 130 12 130 12 139 181 139 350 139 350 128 362 128 362 103 350 103"/><polygon class="cls-4" points="350 96 350 87 181 87 12 87 12 98 0 98 0 123 12 123 12 132 181 132 350 132 350 121 362 121 362 96 350 96"/><polygon class="cls-5" points="350 175 350 166 181 166 12 166 12 177 0 177 0 202 12 202 12 211 181 211 350 211 350 200 362 200 362 175 350 175"/><polygon class="cls-6" points="350 168 350 159 181 159 12 159 12 170 0 170 0 195 12 195 12 204 181 204 350 204 350 193 362 193 362 168 350 168"/><polygon class="cls-7" points="350 247 350 238 181 238 12 238 12 249 0 249 0 274 12 274 12 283 181 283 350 283 350 272 362 272 362 247 350 247"/><polygon class="cls-8" points="350 240 350 231 181 231 12 231 12 242 0 242 0 267 12 267 12 276 181 276 350 276 350 265 362 265 362 240 350 240"/><polygon class="cls-9" points="350 319 350 310 181 310 12 310 12 321 0 321 0 346 12 346 12 355 181 355 350 355 350 344 362 344 362 319 350 319"/><polygon class="cls-10" points="350 312 350 303 181 303 12 303 12 314 0 314 0 339 12 339 12 348 181 348 350 348 350 337 362 337 362 312 350 312"/><polygon class="cls-1" points="1291 6 1173 6 1173 43 1177 43 1177 48 1286 48 1286 43 1291 43 1291 6"/><polygon class="cls-2" points="1291 2 1173 2 1173 39 1177 39 1177 44 1286 44 1286 39 1291 39 1291 2"/><polygon class="cls-11" points="1291 83 1173 83 1173 120 1177 120 1177 125 1286 125 1286 120 1291 120 1291 83"/><polygon class="cls-4" points="1291 79 1173 79 1173 116 1177 116 1177 121 1286 121 1286 116 1291 116 1291 79"/><polygon class="cls-5" points="1291 155 1173 155 1173 192 1177 192 1177 197 1286 197 1286 192 1291 192 1291 155"/><polygon class="cls-6" points="1291 151 1173 151 1173 188 1177 188 1177 193 1286 193 1286 188 1291 188 1291 151"/><polygon class="cls-7" points="1291 234 1173 234 1173 271 1177 271 1177 276 1286 276 1286 271 1291 271 1291 234"/><polygon class="cls-8" points="1291 230 1173 230 1173 267 1177 267 1177 272 1286 272 1286 267 1291 267 1291 230"/><polygon class="cls-9" points="1291 313 1173 313 1173 350 1177 350 1177 355 1286 355 1286 350 1291 350 1291 313"/><polygon class="cls-10" points="1291 309 1173 309 1173 346 1177 346 1177 351 1286 351 1286 346 1291 346 1291 309"/><polygon class="cls-1" points="1500 8 1500 4 1390 4 1390 8 1385 8 1385 24 1385 26 1385 42 1389 42 1389 46 1499 46 1499 42 1504 42 1504 26 1504 24 1504 8 1500 8"/><polygon class="cls-2" points="1500 4 1500 0 1390 0 1390 4 1385 4 1385 20 1385 22 1385 38 1389 38 1389 42 1499 42 1499 38 1504 38 1504 22 1504 20 1504 4 1500 4"/><polygon class="cls-12" points="1500 86 1500 82 1390 82 1390 86 1385 86 1385 102 1385 104 1385 120 1389 120 1389 124 1499 124 1499 120 1504 120 1504 104 1504 102 1504 86 1500 86"/><polygon class="cls-4" points="1500 82 1500 78 1390 78 1390 82 1385 82 1385 98 1385 100 1385 116 1389 116 1389 120 1499 120 1499 116 1504 116 1504 100 1504 98 1504 82 1500 82"/><polygon class="cls-5" points="1500 159 1500 155 1390 155 1390 159 1385 159 1385 175 1385 177 1385 193 1389 193 1389 197 1499 197 1499 193 1504 193 1504 177 1504 175 1504 159 1500 159"/><polygon class="cls-6" points="1500 155 1500 151 1390 151 1390 155 1385 155 1385 171 1385 173 1385 189 1389 189 1389 193 1499 193 1499 189 1504 189 1504 173 1504 171 1504 155 1500 155"/><polygon class="cls-7" points="1500 236 1500 232 1390 232 1390 236 1385 236 1385 252 1385 254 1385 270 1389 270 1389 274 1499 274 1499 270 1504 270 1504 254 1504 252 1504 236 1500 236"/><polygon class="cls-8" points="1500 232 1500 228 1390 228 1390 232 1385 232 1385 248 1385 250 1385 266 1389 266 1389 270 1499 270 1499 266 1504 266 1504 250 1504 248 1504 232 1500 232"/><polygon class="cls-9" points="1500 315 1500 311 1390 311 1390 315 1385 315 1385 331 1385 333 1385 349 1389 349 1389 353 1499 353 1499 349 1504 349 1504 333 1504 331 1504 315 1500 315"/><polygon class="cls-10" points="1500 311 1500 307 1390 307 1390 311 1385 311 1385 327 1385 329 1385 345 1389 345 1389 349 1499 349 1499 345 1504 345 1504 329 1504 327 1504 311 1500 311"/></g></g></svg>