<svg xmlns="http://www.w3.org/2000/svg" viewBox="0 0 119 46"><defs><style>.cls-1{fill:#2773ba;}.cls-2{fill:#45bff8;}</style></defs><title>Button_2</title><g id="Ebene_2" data-name="Ebene 2"><g id="Ebene_1-2" data-name="Ebene 1"><polygon class="cls-1" points="115 8 115 4 5 4 5 8 0 8 0 24 0 26 0 42 4 42 4 46 114 46 114 42 119 42 119 26 119 24 119 8 115 8"/><polygon class="cls-2" points="115 4 115 0 5 0 5 4 0 4 0 20 0 22 0 38 4 38 4 42 114 42 114 38 119 38 119 22 119 20 119 4 115 4"/></g></g></svg>