<svg xmlns="http://www.w3.org/2000/svg" viewBox="0 0 187.6 58.18"><defs><style>.cls-1{fill:#039471;}.cls-2{fill:#32ef90;}</style></defs><title>12</title><g id="Ebene_2" data-name="Ebene 2"><g id="Ebene_1-2" data-name="Ebene 1"><polygon class="cls-1" points="180.56 11.94 180.56 4.48 15.24 4.48 15.24 11.94 9.38 11.94 9.38 19.39 4.69 19.39 4.69 26.85 0 26.85 0 32.82 0 34.31 0 39.16 4.69 39.16 4.69 45.5 9.38 45.5 9.38 51.84 15.24 51.84 15.24 58.19 180.56 58.19 180.56 51.84 187.6 51.84 187.6 45.5 187.6 39.16 187.6 34.31 187.6 32.82 187.6 26.85 187.6 19.39 187.6 11.94 180.56 11.94"/><polygon class="cls-2" points="180.56 7.46 180.56 0 15.24 0 15.24 7.46 9.38 7.46 9.38 14.92 4.69 14.92 4.69 22.38 0 22.38 0 28.35 0 29.84 0 34.69 4.69 34.69 4.69 41.03 9.38 41.03 9.38 47.37 15.24 47.37 15.24 53.71 180.56 53.71 180.56 47.37 187.6 47.37 187.6 41.03 187.6 34.69 187.6 29.84 187.6 28.35 187.6 22.38 187.6 14.92 187.6 7.46 180.56 7.46"/></g></g></svg>