<svg xmlns="http://www.w3.org/2000/svg" viewBox="0 0 502.2 244.59"><defs><style>.cls-1{fill:#223d3d;}.cls-2{fill:#9bd2d2;}.cls-3{fill:#fff;}.cls-4{fill:#b1bfca;}</style></defs><title>ATLAS</title><g id="Ebene_2" data-name="Ebene 2"><g id="Ebene_1-2" data-name="Ebene 1"><polygon class="cls-1" points="160.97 78.71 160.97 73.47 60.23 73.47 60.23 78.71 55.14 78.71 55.14 115.4 59.21 115.4 59.21 119.59 160.97 119.59 160.97 115.4 166.06 115.4 166.06 78.71 160.97 78.71"/><polygon class="cls-2" points="160.97 74.52 160.97 70.32 60.23 70.32 60.23 74.52 55.14 74.52 55.14 79.76 60.23 79.76 60.23 75.56 160.97 75.56 160.97 79.76 166.06 79.76 166.06 74.52 160.97 74.52"/><polygon class="cls-1" points="218.69 203.71 218.69 198.47 10.51 198.47 10.51 203.71 0 203.71 0 240.4 8.41 240.4 8.41 244.59 218.69 244.59 218.69 240.4 229.2 240.4 229.2 203.71 218.69 203.71"/><polygon class="cls-2" points="218.69 199.52 218.69 195.32 10.51 195.32 10.51 199.52 0 199.52 0 204.76 10.51 204.76 10.51 200.56 218.69 200.56 218.69 204.76 229.2 204.76 229.2 199.52 218.69 199.52"/><polygon class="cls-1" points="186.9 143.71 186.9 138.47 42.3 138.47 42.3 143.71 35 143.71 35 180.4 40.84 180.4 40.84 184.59 186.9 184.59 186.9 180.4 194.2 180.4 194.2 143.71 186.9 143.71"/><polygon class="cls-2" points="186.9 139.52 186.9 135.32 42.3 135.32 42.3 139.52 35 139.52 35 144.76 42.3 144.76 42.3 140.56 186.9 140.56 186.9 144.76 194.2 144.76 194.2 139.52 186.9 139.52"/><polygon class="cls-3" points="433.97 73.71 433.97 68.47 333.23 68.47 333.23 73.71 328.14 73.71 328.14 110.4 332.21 110.4 332.21 114.59 433.97 114.59 433.97 110.4 439.06 110.4 439.06 73.71 433.97 73.71"/><polygon class="cls-4" points="433.97 69.52 433.97 65.32 333.23 65.32 333.23 69.52 328.14 69.52 328.14 74.76 333.23 74.76 333.23 70.56 433.97 70.56 433.97 74.76 439.06 74.76 439.06 69.52 433.97 69.52"/><polygon class="cls-3" points="491.69 198.71 491.69 193.47 283.51 193.47 283.51 198.71 273 198.71 273 235.4 281.41 235.4 281.41 239.59 491.69 239.59 491.69 235.4 502.2 235.4 502.2 198.71 491.69 198.71"/><polygon class="cls-4" points="491.69 194.52 491.69 190.32 283.51 190.32 283.51 194.52 273 194.52 273 199.76 283.51 199.76 283.51 195.56 491.69 195.56 491.69 199.76 502.2 199.76 502.2 194.52 491.69 194.52"/><polygon class="cls-3" points="459.9 138.71 459.9 133.47 315.3 133.47 315.3 138.71 308 138.71 308 175.4 313.84 175.4 313.84 179.59 459.9 179.59 459.9 175.4 467.2 175.4 467.2 138.71 459.9 138.71"/><polygon class="cls-4" points="459.9 134.52 459.9 130.32 315.3 130.32 315.3 134.52 308 134.52 308 139.76 315.3 139.76 315.3 135.56 459.9 135.56 459.9 139.76 467.2 139.76 467.2 134.52 459.9 134.52"/><polygon class="cls-1" points="135.38 12.19 131.31 12.19 131.31 8 95.7 8 95.7 12.19 90.61 12.19 90.61 48.88 95.7 48.88 95.7 54.12 131.31 54.12 131.31 48.88 135.38 48.88 135.38 12.19"/><polygon class="cls-3" points="406.38 4.19 402.31 4.19 402.31 0 366.7 0 366.7 4.19 361.61 4.19 361.61 40.88 366.7 40.88 366.7 46.12 402.31 46.12 402.31 40.88 406.38 40.88 406.38 4.19"/></g></g></svg>