<svg xmlns="http://www.w3.org/2000/svg" viewBox="0 0 190.6 336.18"><defs><style>.cls-1{fill:#d67d00;}.cls-2{fill:#ffc93d;}.cls-3{fill:#039471;}.cls-4{fill:#32ef90;}.cls-5{fill:#784aae;}.cls-6{fill:#c885ee;}.cls-7{fill:#2773ba;}.cls-8{fill:#45bff8;}.cls-9{fill:#b1bfca;}.cls-10{fill:#fff;}</style></defs><title>ATLAS_02</title><g id="Ebene_2" data-name="Ebene 2"><g id="Ebene_1-2" data-name="Ebene 1"><polygon class="cls-1" points="180.56 11.94 180.56 4.48 15.24 4.48 15.24 11.94 9.38 11.94 9.38 19.39 4.69 19.39 4.69 26.85 0 26.85 0 32.82 0 34.31 0 39.16 4.69 39.16 4.69 45.5 9.38 45.5 9.38 51.84 15.24 51.84 15.24 58.19 180.56 58.19 180.56 51.84 187.6 51.84 187.6 45.5 187.6 39.16 187.6 34.31 187.6 32.82 187.6 26.85 187.6 19.39 187.6 11.94 180.56 11.94"/><polygon class="cls-2" points="180.56 7.46 180.56 0 15.24 0 15.24 7.46 9.38 7.46 9.38 14.92 4.69 14.92 4.69 22.38 0 22.38 0 28.35 0 29.84 0 34.69 4.69 34.69 4.69 41.03 9.38 41.03 9.38 47.37 15.24 47.37 15.24 53.71 180.56 53.71 180.56 47.37 187.6 47.37 187.6 41.03 187.6 34.69 187.6 29.84 187.6 28.35 187.6 22.38 187.6 14.92 187.6 7.46 180.56 7.46"/><polygon class="cls-3" points="180.56 80.94 180.56 73.48 15.24 73.48 15.24 80.94 9.38 80.94 9.38 88.39 4.69 88.39 4.69 95.85 0 95.85 0 101.82 0 103.31 0 108.16 4.69 108.16 4.69 114.5 9.38 114.5 9.38 120.84 15.24 120.84 15.24 127.19 180.56 127.19 180.56 120.84 187.6 120.84 187.6 114.5 187.6 108.16 187.6 103.31 187.6 101.82 187.6 95.85 187.6 88.39 187.6 80.94 180.56 80.94"/><polygon class="cls-4" points="180.56 76.46 180.56 69 15.24 69 15.24 76.46 9.38 76.46 9.38 83.92 4.69 83.92 4.69 91.38 0 91.38 0 97.35 0 98.84 0 103.69 4.69 103.69 4.69 110.03 9.38 110.03 9.38 116.37 15.24 116.37 15.24 122.71 180.56 122.71 180.56 116.37 187.6 116.37 187.6 110.03 187.6 103.69 187.6 98.84 187.6 97.35 187.6 91.38 187.6 83.92 187.6 76.46 180.56 76.46"/><polygon class="cls-5" points="180.56 149.94 180.56 142.48 15.24 142.48 15.24 149.94 9.38 149.94 9.38 157.4 4.69 157.4 4.69 164.85 0 164.85 0 170.82 0 172.31 0 177.16 4.69 177.16 4.69 183.5 9.38 183.5 9.38 189.84 15.24 189.84 15.24 196.19 180.56 196.19 180.56 189.84 187.6 189.84 187.6 183.5 187.6 177.16 187.6 172.31 187.6 170.82 187.6 164.85 187.6 157.4 187.6 149.94 180.56 149.94"/><polygon class="cls-6" points="180.56 145.46 180.56 138 15.24 138 15.24 145.46 9.38 145.46 9.38 152.92 4.69 152.92 4.69 160.38 0 160.38 0 166.35 0 167.84 0 172.69 4.69 172.69 4.69 179.03 9.38 179.03 9.38 185.37 15.24 185.37 15.24 191.71 180.56 191.71 180.56 185.37 187.6 185.37 187.6 179.03 187.6 172.69 187.6 167.84 187.6 166.35 187.6 160.38 187.6 152.92 187.6 145.46 180.56 145.46"/><polygon class="cls-7" points="180.56 218.94 180.56 211.48 15.24 211.48 15.24 218.94 9.38 218.94 9.38 226.4 4.69 226.4 4.69 233.85 0 233.85 0 239.82 0 241.31 0 246.16 4.69 246.16 4.69 252.5 9.38 252.5 9.38 258.84 15.24 258.84 15.24 265.19 180.56 265.19 180.56 258.84 187.6 258.84 187.6 252.5 187.6 246.16 187.6 241.31 187.6 239.82 187.6 233.85 187.6 226.4 187.6 218.94 180.56 218.94"/><polygon class="cls-8" points="180.56 214.46 180.56 207 15.24 207 15.24 214.46 9.38 214.46 9.38 221.92 4.69 221.92 4.69 229.38 0 229.38 0 235.35 0 236.84 0 241.69 4.69 241.69 4.69 248.03 9.38 248.03 9.38 254.37 15.24 254.37 15.24 260.71 180.56 260.71 180.56 254.37 187.6 254.37 187.6 248.03 187.6 241.69 187.6 236.84 187.6 235.35 187.6 229.38 187.6 221.92 187.6 214.46 180.56 214.46"/><polygon class="cls-9" points="183.56 289.94 183.56 282.48 18.24 282.48 18.24 289.94 12.38 289.94 12.38 297.39 7.69 297.39 7.69 304.85 3 304.85 3 310.82 3 312.31 3 317.16 7.69 317.16 7.69 323.5 12.38 323.5 12.38 329.84 18.24 329.84 18.24 336.19 183.56 336.19 183.56 329.84 190.6 329.84 190.6 323.5 190.6 317.16 190.6 312.31 190.6 310.82 190.6 304.85 190.6 297.39 190.6 289.94 183.56 289.94"/><polygon class="cls-10" points="183.56 285.46 183.56 278 18.24 278 18.24 285.46 12.38 285.46 12.38 292.92 7.69 292.92 7.69 300.38 3 300.38 3 306.35 3 307.84 3 312.69 7.69 312.69 7.69 319.03 12.38 319.03 12.38 325.37 18.24 325.37 18.24 331.71 183.56 331.71 183.56 325.37 190.6 325.37 190.6 319.03 190.6 312.69 190.6 307.84 190.6 306.35 190.6 300.38 190.6 292.92 190.6 285.46 183.56 285.46"/></g></g></svg>