<svg xmlns="http://www.w3.org/2000/svg" viewBox="0 0 970.06 229.8"><defs><style>.cls-1{fill:#d67d00;}.cls-2{fill:#ffc93d;}.cls-3{fill:#eaa31e;}.cls-4{fill:#fff;}.cls-5{fill:#b1bfca;}.cls-6{fill:#e6e6e6;}.cls-7{fill:#223d3d;}.cls-8{fill:#9bd2d2;}.cls-9{fill:#95cdcd;}.cls-10{fill:#e4f7f7;}.cls-11{fill:#039471;}.cls-12{fill:#32ef90;}.cls-13{fill:#cfd8dc;}.cls-14{fill:#b3b3b3;}.cls-15{fill:#9ea7aa;}.cls-16{opacity:0.5;}.cls-17{fill:#db7700;}.cls-18{fill:#ff9a3d;}</style></defs><title>ATLAS</title><g id="Ebene_2" data-name="Ebene 2"><g id="Ebene_1-2" data-name="Ebene 1"><polygon class="cls-1" points="617.93 22.82 604.94 22.82 604.94 9.83 482.34 9.83 482.34 22.82 469.35 22.82 469.35 145.42 482.34 145.42 482.34 158.41 604.94 158.41 604.94 145.42 617.93 145.42 617.93 22.82"/><polygon class="cls-2" points="617.93 13.43 604.94 13.43 604.94 0.44 482.34 0.44 482.34 13.43 469.35 13.43 469.35 136.03 482.34 136.03 482.34 149.02 604.94 149.02 604.94 136.03 617.93 136.03 617.93 13.43"/><polygon class="cls-3" points="600.67 35.8 583.53 35.8 583.53 18.66 508.72 18.66 508.72 35.8 491.57 35.8 491.57 110.61 508.72 110.61 508.72 127.76 583.53 127.76 583.53 110.61 600.67 110.61 600.67 35.8"/><polygon class="cls-1" points="559.84 51.65 559.84 42.3 555.38 42.3 555.38 32.95 549.8 32.95 549.8 28.79 545.34 28.79 541.19 28.79 541.19 32.95 535.99 32.95 535.99 42.3 531.84 42.3 531.84 51.65 502.74 51.65 502.74 61 507.94 61 507.94 66.2 513.13 66.2 513.13 71.39 517.29 71.39 517.29 75.55 522.49 75.55 522.49 81.78 517.29 81.78 517.29 90.09 514.17 90.09 514.17 98.41 510.02 98.41 510.02 108.8 522.49 108.8 522.49 104.64 531.84 104.64 531.84 99.44 540.15 99.44 540.15 93.21 545.34 93.21 550.92 93.21 550.92 99.44 559.84 99.44 559.84 104.64 569.87 104.64 569.87 108.8 583.25 108.8 583.25 98.41 578.79 98.41 578.79 90.09 575.45 90.09 575.45 81.78 569.87 81.78 569.87 75.55 575.45 75.55 575.45 71.39 579.91 71.39 579.91 66.2 585.49 66.2 585.49 61 591.06 61 591.06 51.65 559.84 51.65"/><polygon class="cls-2" points="559.84 48.53 559.84 39.18 555.38 39.18 555.38 29.83 549.8 29.83 549.8 25.68 545.34 25.68 541.19 25.68 541.19 29.83 535.99 29.83 535.99 39.18 531.84 39.18 531.84 48.53 502.74 48.53 502.74 57.88 507.94 57.88 507.94 63.08 513.13 63.08 513.13 68.27 517.29 68.27 517.29 72.43 522.49 72.43 522.49 78.66 517.29 78.66 517.29 86.98 514.17 86.98 514.17 95.29 510.02 95.29 510.02 105.68 522.49 105.68 522.49 101.52 531.84 101.52 531.84 96.33 540.15 96.33 540.15 90.09 545.34 90.09 550.92 90.09 550.92 96.33 559.84 96.33 559.84 101.52 569.87 101.52 569.87 105.68 583.25 105.68 583.25 95.29 578.79 95.29 578.79 86.98 575.45 86.98 575.45 78.66 569.87 78.66 569.87 72.43 575.45 72.43 575.45 68.27 579.91 68.27 579.91 63.08 585.49 63.08 585.49 57.88 591.06 57.88 591.06 48.53 559.84 48.53"/><rect class="cls-4" x="568.2" y="135.81" width="16.62" height="6.23"/><rect class="cls-4" x="590.02" y="135.81" width="8.31" height="6.23"/><polygon class="cls-5" points="794.93 22.82 781.94 22.82 781.94 9.83 659.34 9.83 659.34 22.82 646.35 22.82 646.35 145.42 659.34 145.42 659.34 158.41 781.94 158.41 781.94 145.42 794.93 145.42 794.93 22.82"/><polygon class="cls-4" points="794.93 13.43 781.94 13.43 781.94 0.44 659.34 0.44 659.34 13.43 646.35 13.43 646.35 136.03 659.34 136.03 659.34 149.02 781.94 149.02 781.94 136.03 794.93 136.03 794.93 13.43"/><polygon class="cls-6" points="777.67 35.8 760.53 35.8 760.53 18.66 685.72 18.66 685.72 35.8 668.58 35.8 668.58 110.61 685.72 110.61 685.72 127.76 760.53 127.76 760.53 110.61 777.67 110.61 777.67 35.8"/><polygon class="cls-5" points="736.84 51.65 736.84 42.3 732.38 42.3 732.38 32.95 726.8 32.95 726.8 28.79 722.34 28.79 718.19 28.79 718.19 32.95 712.99 32.95 712.99 42.3 708.84 42.3 708.84 51.65 679.74 51.65 679.74 61 684.94 61 684.94 66.2 690.13 66.2 690.13 71.39 694.29 71.39 694.29 75.55 699.49 75.55 699.49 81.78 694.29 81.78 694.29 90.09 691.17 90.09 691.17 98.41 687.02 98.41 687.02 108.8 699.49 108.8 699.49 104.64 708.84 104.64 708.84 99.44 717.15 99.44 717.15 93.21 722.34 93.21 727.92 93.21 727.92 99.44 736.84 99.44 736.84 104.64 746.87 104.64 746.87 108.8 760.25 108.8 760.25 98.41 755.79 98.41 755.79 90.09 752.45 90.09 752.45 81.78 746.87 81.78 746.87 75.55 752.45 75.55 752.45 71.39 756.91 71.39 756.91 66.2 762.49 66.2 762.49 61 768.06 61 768.06 51.65 736.84 51.65"/><polygon class="cls-4" points="736.84 48.53 736.84 39.18 732.38 39.18 732.38 29.83 726.8 29.83 726.8 25.68 722.34 25.68 718.19 25.68 718.19 29.83 712.99 29.83 712.99 39.18 708.84 39.18 708.84 48.53 679.74 48.53 679.74 57.88 684.94 57.88 684.94 63.08 690.13 63.08 690.13 68.27 694.29 68.27 694.29 72.43 699.49 72.43 699.49 78.66 694.29 78.66 694.29 86.98 691.17 86.98 691.17 95.29 687.02 95.29 687.02 105.68 699.49 105.68 699.49 101.52 708.84 101.52 708.84 96.33 717.15 96.33 717.15 90.09 722.34 90.09 727.92 90.09 727.92 96.33 736.84 96.33 736.84 101.52 746.87 101.52 746.87 105.68 760.25 105.68 760.25 95.29 755.79 95.29 755.79 86.98 752.45 86.98 752.45 78.66 746.87 78.66 746.87 72.43 752.45 72.43 752.45 68.27 756.91 68.27 756.91 63.08 762.49 63.08 762.49 57.88 768.06 57.88 768.06 48.53 736.84 48.53"/><rect class="cls-4" x="745.2" y="135.81" width="16.62" height="6.23"/><rect class="cls-4" x="767.02" y="135.81" width="8.31" height="6.23"/><polygon class="cls-7" points="105.83 22.52 105.83 17.27 5.09 17.27 5.09 22.52 0 22.52 0 59.2 4.07 59.2 4.07 63.4 105.83 63.4 105.83 59.2 110.92 59.2 110.92 22.52 105.83 22.52"/><polygon class="cls-8" points="105.83 18.32 105.83 14.13 5.09 14.13 5.09 18.32 0 18.32 0 23.57 5.09 23.57 5.09 19.37 105.83 19.37 105.83 23.57 110.92 23.57 110.92 18.32 105.83 18.32"/><polygon class="cls-9" points="49.86 34.05 45.79 34.05 45.79 27.76 10.18 27.76 10.18 34.05 5.09 34.05 5.09 52.91 10.18 52.91 10.18 58.16 45.79 58.16 45.79 52.91 49.86 52.91 49.86 34.05"/><polygon class="cls-10" points="49.86 29.85 45.79 29.85 45.79 23.57 10.18 23.57 10.18 29.85 5.09 29.85 5.09 48.72 10.18 48.72 10.18 53.96 45.79 53.96 45.79 48.72 49.86 48.72 49.86 29.85"/><polygon class="cls-7" points="105.83 100.65 105.83 95.41 5.09 95.41 5.09 100.65 0 100.65 0 137.34 4.07 137.34 4.07 141.53 105.83 141.53 105.83 137.34 110.92 137.34 110.92 100.65 105.83 100.65"/><polygon class="cls-8" points="105.83 96.46 105.83 92.27 5.09 92.27 5.09 96.46 0 96.46 0 101.7 5.09 101.7 5.09 97.51 105.83 97.51 105.83 101.7 110.92 101.7 110.92 96.46 105.83 96.46"/><polygon class="cls-11" points="104.82 112.18 100.75 112.18 100.75 105.89 65.13 105.89 65.13 112.18 60.04 112.18 60.04 131.05 65.13 131.05 65.13 136.29 100.75 136.29 100.75 131.05 104.82 131.05 104.82 112.18"/><polygon class="cls-12" points="104.82 107.99 100.75 107.99 100.75 101.7 65.13 101.7 65.13 107.99 60.04 107.99 60.04 126.86 65.13 126.86 65.13 132.1 100.75 132.1 100.75 126.86 104.82 126.86 104.82 107.99"/><polygon class="cls-6" points="105.83 170.65 105.83 165.41 5.09 165.41 5.09 170.65 0 170.65 0 207.34 4.07 207.34 4.07 211.53 105.83 211.53 105.83 207.34 110.92 207.34 110.92 170.65 105.83 170.65"/><polygon class="cls-5" points="105.83 166.46 105.83 162.27 5.09 162.27 5.09 166.46 0 166.46 0 171.7 5.09 171.7 5.09 167.51 105.83 167.51 105.83 171.7 110.92 171.7 110.92 166.46 105.83 166.46"/><polygon class="cls-5" points="104.82 182.18 100.75 182.18 100.75 175.89 65.13 175.89 65.13 182.18 60.04 182.18 60.04 201.05 65.13 201.05 65.13 206.29 100.75 206.29 100.75 201.05 104.82 201.05 104.82 182.18"/><polygon class="cls-4" points="104.82 177.99 100.75 177.99 100.75 171.7 65.13 171.7 65.13 177.99 60.04 177.99 60.04 196.86 65.13 196.86 65.13 202.1 100.75 202.1 100.75 196.86 104.82 196.86 104.82 177.99"/><polygon class="cls-13" points="969.93 13.43 956.94 13.43 956.94 0.44 834.34 0.44 834.34 13.43 821.35 13.43 821.35 136.03 834.34 136.03 834.34 149.02 956.94 149.02 956.94 136.03 969.93 136.03 969.93 13.43"/><polygon class="cls-14" points="952.67 35.8 935.53 35.8 935.53 18.66 860.72 18.66 860.72 35.8 843.58 35.8 843.58 110.61 860.72 110.61 860.72 127.76 935.53 127.76 935.53 110.61 952.67 110.61 952.67 35.8"/><polygon class="cls-15" points="911.84 51.65 911.84 42.3 907.38 42.3 907.38 32.95 901.8 32.95 901.8 28.79 897.34 28.79 893.19 28.79 893.19 32.95 887.99 32.95 887.99 42.3 883.84 42.3 883.84 51.65 854.74 51.65 854.74 61 859.94 61 859.94 66.2 865.13 66.2 865.13 71.39 869.29 71.39 869.29 75.55 874.49 75.55 874.49 81.78 869.29 81.78 869.29 90.09 866.17 90.09 866.17 98.41 862.02 98.41 862.02 108.8 874.49 108.8 874.49 104.64 883.84 104.64 883.84 99.44 892.15 99.44 892.15 93.21 897.34 93.21 902.92 93.21 902.92 99.44 911.84 99.44 911.84 104.64 921.87 104.64 921.87 108.8 935.25 108.8 935.25 98.41 930.79 98.41 930.79 90.09 927.45 90.09 927.45 81.78 921.87 81.78 921.87 75.55 927.45 75.55 927.45 71.39 931.91 71.39 931.91 66.2 937.49 66.2 937.49 61 943.06 61 943.06 51.65 911.84 51.65"/><polygon class="cls-13" points="911.84 48.53 911.84 39.18 907.38 39.18 907.38 29.83 901.8 29.83 901.8 25.68 897.34 25.68 893.19 25.68 893.19 29.83 887.99 29.83 887.99 39.18 883.84 39.18 883.84 48.53 854.74 48.53 854.74 57.88 859.94 57.88 859.94 63.08 865.13 63.08 865.13 68.27 869.29 68.27 869.29 72.43 874.49 72.43 874.49 78.66 869.29 78.66 869.29 86.98 866.17 86.98 866.17 95.29 862.02 95.29 862.02 105.68 874.49 105.68 874.49 101.52 883.84 101.52 883.84 96.33 892.15 96.33 892.15 90.09 897.34 90.09 902.92 90.09 902.92 96.33 911.84 96.33 911.84 101.52 921.87 101.52 921.87 105.68 935.25 105.68 935.25 95.29 930.79 95.29 930.79 86.98 927.45 86.98 927.45 78.66 921.87 78.66 921.87 72.43 927.45 72.43 927.45 68.27 931.91 68.27 931.91 63.08 937.49 63.08 937.49 57.88 943.06 57.88 943.06 48.53 911.84 48.53"/><rect class="cls-4" x="920.2" y="135.81" width="16.62" height="6.23"/><rect class="cls-4" x="942.02" y="135.81" width="8.31" height="6.23"/><polygon class="cls-16" points="970.06 13 957.06 13 957.06 0 834.06 0 834.06 13 821.06 13 821.06 136 834.06 136 834.06 149 957.06 149 957.06 136 970.06 136 970.06 13"/><polygon class="cls-17" points="296.96 143.8 293.85 143.8 293.85 139.2 291.19 139.2 291.19 135.1 288.52 135.1 288.52 129.98 284.52 129.98 284.52 126.39 209.86 126.39 209.86 129.98 205.42 129.98 205.42 135.1 203.2 135.1 203.2 139.2 200.53 139.2 200.53 143.8 197.42 143.8 197.42 211.39 200.53 211.39 200.53 217.03 203.2 217.03 203.2 221.12 205.42 221.12 205.42 225.73 209.86 225.73 209.86 228.8 284.52 228.8 284.52 225.73 288.52 225.73 288.52 221.12 291.19 221.12 291.19 217.03 293.85 217.03 293.85 211.39 296.96 211.39 296.96 143.8"/><polygon class="cls-18" points="296.96 139.4 293.85 139.4 293.85 134.79 291.19 134.79 291.19 130.69 288.52 130.69 288.52 125.58 284.52 125.58 284.52 121.99 209.86 121.99 209.86 125.58 205.42 125.58 205.42 130.69 203.2 130.69 203.2 134.79 200.53 134.79 200.53 139.4 197.42 139.4 197.42 206.99 200.53 206.99 200.53 212.62 203.2 212.62 203.2 216.72 205.42 216.72 205.42 221.33 209.86 221.33 209.86 224.4 284.52 224.4 284.52 221.33 288.52 221.33 288.52 216.72 291.19 216.72 291.19 212.62 293.85 212.62 293.85 206.99 296.96 206.99 296.96 139.4"/><polygon class="cls-17" points="297.48 25.46 294.37 25.46 294.37 20.85 291.7 20.85 291.7 16.76 289.04 16.76 289.04 11.64 285.04 11.64 285.04 8.05 210.38 8.05 210.38 11.64 205.94 11.64 205.94 16.76 203.72 16.76 203.72 20.85 201.05 20.85 201.05 25.46 197.94 25.46 197.94 93.05 201.05 93.05 201.05 98.68 203.72 98.68 203.72 102.78 205.94 102.78 205.94 107.39 210.38 107.39 210.38 110.46 285.04 110.46 285.04 107.39 289.04 107.39 289.04 102.78 291.7 102.78 291.7 98.68 294.37 98.68 294.37 93.05 297.48 93.05 297.48 25.46"/><polygon class="cls-2" points="297.48 21.06 294.37 21.06 294.37 16.45 291.7 16.45 291.7 12.35 289.04 12.35 289.04 7.23 285.04 7.23 285.04 3.65 210.38 3.65 210.38 7.23 205.94 7.23 205.94 12.35 203.72 12.35 203.72 16.45 201.05 16.45 201.05 21.06 197.94 21.06 197.94 88.65 201.05 88.65 201.05 94.28 203.72 94.28 203.72 98.38 205.94 98.38 205.94 102.98 210.38 102.98 210.38 106.06 285.04 106.06 285.04 102.98 289.04 102.98 289.04 98.38 291.7 98.38 291.7 94.28 294.37 94.28 294.37 88.65 297.48 88.65 297.48 21.06"/><path class="cls-4" d="M226.19,32.4V30.92h8V22.51h26.74v8.41h8V50.71h-8v8.41h-8v8.41H242.15V56.16h8V47.75h8V33.88H237v8.41H226.19V32.4Zm16,42.07V73h10.78V84.36H242.15V74.47Z"/><polygon class="cls-5" points="413.96 144.8 410.85 144.8 410.85 140.2 408.19 140.2 408.19 136.1 405.52 136.1 405.52 130.98 401.52 130.98 401.52 127.39 326.86 127.39 326.86 130.98 322.42 130.98 322.42 136.1 320.2 136.1 320.2 140.2 317.53 140.2 317.53 144.8 314.42 144.8 314.42 212.39 317.53 212.39 317.53 218.03 320.2 218.03 320.2 222.12 322.42 222.12 322.42 226.73 326.86 226.73 326.86 229.8 401.52 229.8 401.52 226.73 405.52 226.73 405.52 222.12 408.19 222.12 408.19 218.03 410.85 218.03 410.85 212.39 413.96 212.39 413.96 144.8"/><polygon class="cls-4" points="413.96 140.4 410.85 140.4 410.85 135.79 408.19 135.79 408.19 131.69 405.52 131.69 405.52 126.58 401.52 126.58 401.52 122.99 326.86 122.99 326.86 126.58 322.42 126.58 322.42 131.69 320.2 131.69 320.2 135.79 317.53 135.79 317.53 140.4 314.42 140.4 314.42 207.99 317.53 207.99 317.53 213.62 320.2 213.62 320.2 217.72 322.42 217.72 322.42 222.33 326.86 222.33 326.86 225.4 401.52 225.4 401.52 222.33 405.52 222.33 405.52 217.72 408.19 217.72 408.19 213.62 410.85 213.62 410.85 207.99 413.96 207.99 413.96 140.4"/><polygon class="cls-5" points="414.48 26.46 411.37 26.46 411.37 21.85 408.7 21.85 408.7 17.76 406.04 17.76 406.04 12.64 402.04 12.64 402.04 9.05 327.38 9.05 327.38 12.64 322.94 12.64 322.94 17.76 320.72 17.76 320.72 21.85 318.05 21.85 318.05 26.46 314.94 26.46 314.94 94.05 318.05 94.05 318.05 99.68 320.72 99.68 320.72 103.78 322.94 103.78 322.94 108.39 327.38 108.39 327.38 111.46 402.04 111.46 402.04 108.39 406.04 108.39 406.04 103.78 408.7 103.78 408.7 99.68 411.37 99.68 411.37 94.05 414.48 94.05 414.48 26.46"/><polygon class="cls-4" points="414.48 22.06 411.37 22.06 411.37 17.45 408.7 17.45 408.7 13.35 406.04 13.35 406.04 8.23 402.04 8.23 402.04 4.65 327.38 4.65 327.38 8.23 322.94 8.23 322.94 13.35 320.72 13.35 320.72 17.45 318.05 17.45 318.05 22.06 314.94 22.06 314.94 89.65 318.05 89.65 318.05 95.28 320.72 95.28 320.72 99.38 322.94 99.38 322.94 103.98 327.38 103.98 327.38 107.06 402.04 107.06 402.04 103.98 406.04 103.98 406.04 99.38 408.7 99.38 408.7 95.28 411.37 95.28 411.37 89.65 414.48 89.65 414.48 22.06"/><path class="cls-6" d="M343.19,33.4V31.92h8V23.51h26.74v8.41h8V51.71h-8v8.41h-8v8.41H359.15V57.16h8V48.75h8V34.88H354v8.41H343.19V33.4Zm16,42.07V74h10.78V85.36H359.15V75.47Z"/></g></g></svg>