<svg xmlns="http://www.w3.org/2000/svg" viewBox="0 0 148.58 157.97"><defs><style>.cls-1{fill:#d67d00;}.cls-2{fill:#ffc93d;}.cls-3{fill:#eaa31e;}.cls-4{fill:#fff;}</style></defs><title>Interactable_Star_Filled</title><g id="Ebene_2" data-name="Ebene 2"><g id="Ebene_1-2" data-name="Ebene 1"><polygon class="cls-1" points="148.58 22.38 135.59 22.38 135.59 9.39 12.99 9.39 12.99 22.38 0 22.38 0 144.98 12.99 144.98 12.99 157.97 135.59 157.97 135.59 144.98 148.58 144.98 148.58 22.38"/><polygon class="cls-2" points="148.58 12.99 135.59 12.99 135.59 0 12.99 0 12.99 12.99 0 12.99 0 135.59 12.99 135.59 12.99 148.58 135.59 148.58 135.59 135.59 148.58 135.59 148.58 12.99"/><polygon class="cls-3" points="131.32 35.37 114.17 35.37 114.17 18.22 39.37 18.22 39.37 35.37 22.22 35.37 22.22 110.17 39.37 110.17 39.37 127.32 114.17 127.32 114.17 110.17 131.32 110.17 131.32 35.37"/><polygon class="cls-1" points="90.49 51.21 90.49 41.86 86.03 41.86 86.03 32.51 80.45 32.51 80.45 28.35 75.99 28.35 71.83 28.35 71.83 32.51 66.64 32.51 66.64 41.86 62.48 41.86 62.48 51.21 33.39 51.21 33.39 60.56 38.59 60.56 38.59 65.76 43.78 65.76 43.78 70.95 47.94 70.95 47.94 75.11 53.13 75.11 53.13 81.34 47.94 81.34 47.94 89.65 44.82 89.65 44.82 97.97 40.66 97.97 40.66 108.36 53.13 108.36 53.13 104.2 62.48 104.2 62.48 99 70.8 99 70.8 92.77 75.99 92.77 81.57 92.77 81.57 99 90.49 99 90.49 104.2 100.52 104.2 100.52 108.36 113.9 108.36 113.9 97.97 109.44 97.97 109.44 89.65 106.1 89.65 106.1 81.34 100.52 81.34 100.52 75.11 106.1 75.11 106.1 70.95 110.56 70.95 110.56 65.76 116.13 65.76 116.13 60.56 121.71 60.56 121.71 51.21 90.49 51.21"/><polygon class="cls-2" points="90.49 48.09 90.49 38.74 86.03 38.74 86.03 29.39 80.45 29.39 80.45 25.23 75.99 25.23 71.83 25.23 71.83 29.39 66.64 29.39 66.64 38.74 62.48 38.74 62.48 48.09 33.39 48.09 33.39 57.44 38.59 57.44 38.59 62.64 43.78 62.64 43.78 67.83 47.94 67.83 47.94 71.99 53.13 71.99 53.13 78.22 47.94 78.22 47.94 86.54 44.82 86.54 44.82 94.85 40.66 94.85 40.66 105.24 53.13 105.24 53.13 101.08 62.48 101.08 62.48 95.89 70.8 95.89 70.8 89.65 75.99 89.65 81.57 89.65 81.57 95.89 90.49 95.89 90.49 101.08 100.52 101.08 100.52 105.24 113.9 105.24 113.9 94.85 109.44 94.85 109.44 86.54 106.1 86.54 106.1 78.22 100.52 78.22 100.52 71.99 106.1 71.99 106.1 67.83 110.56 67.83 110.56 62.64 116.13 62.64 116.13 57.44 121.71 57.44 121.71 48.09 90.49 48.09"/><rect class="cls-4" x="98.85" y="135.37" width="16.62" height="6.23"/><rect class="cls-4" x="120.67" y="135.37" width="8.31" height="6.23"/></g></g></svg>