<svg xmlns="http://www.w3.org/2000/svg" viewBox="0 0 110.92 49.27"><defs><style>.cls-1{fill:#223d3d;}.cls-2{fill:#9bd2d2;}.cls-3{fill:#95cdcd;}.cls-4{fill:#e4f7f7;}</style></defs><title>Interactable_Switch_Off</title><g id="Ebene_2" data-name="Ebene 2"><g id="Ebene_1-2" data-name="Ebene 1"><polygon class="cls-1" points="105.83 8.39 105.83 3.15 5.09 3.15 5.09 8.39 0 8.39 0 45.07 4.07 45.07 4.07 49.27 105.83 49.27 105.83 45.07 110.92 45.07 110.92 8.39 105.83 8.39"/><polygon class="cls-2" points="105.83 4.19 105.83 0 5.09 0 5.09 4.19 0 4.19 0 9.43 5.09 9.43 5.09 5.24 105.83 5.24 105.83 9.43 110.92 9.43 110.92 4.19 105.83 4.19"/><polygon class="cls-3" points="49.86 19.92 45.79 19.92 45.79 13.63 10.18 13.63 10.18 19.92 5.09 19.92 5.09 38.78 10.18 38.78 10.18 44.03 45.79 44.03 45.79 38.78 49.86 38.78 49.86 19.92"/><polygon class="cls-4" points="49.86 15.72 45.79 15.72 45.79 9.43 10.18 9.43 10.18 15.72 5.09 15.72 5.09 34.59 10.18 34.59 10.18 39.83 45.79 39.83 45.79 34.59 49.86 34.59 49.86 15.72"/></g></g></svg>