<svg xmlns="http://www.w3.org/2000/svg" viewBox="0 0 110.92 49.27"><defs><style>.cls-1{fill:#223d3d;}.cls-2{fill:#9bd2d2;}.cls-3{fill:#039471;}.cls-4{fill:#32ef90;}</style></defs><title>Interactable_Switch_On</title><g id="Ebene_2" data-name="Ebene 2"><g id="Ebene_1-2" data-name="Ebene 1"><polygon class="cls-1" points="105.83 8.39 105.83 3.15 5.09 3.15 5.09 8.39 0 8.39 0 45.07 4.07 45.07 4.07 49.27 105.83 49.27 105.83 45.07 110.92 45.07 110.92 8.39 105.83 8.39"/><polygon class="cls-2" points="105.83 4.19 105.83 0 5.09 0 5.09 4.19 0 4.19 0 9.43 5.09 9.43 5.09 5.24 105.83 5.24 105.83 9.43 110.92 9.43 110.92 4.19 105.83 4.19"/><polygon class="cls-3" points="104.82 19.92 100.75 19.92 100.75 13.63 65.13 13.63 65.13 19.92 60.04 19.92 60.04 38.78 65.13 38.78 65.13 44.03 100.75 44.03 100.75 38.78 104.82 38.78 104.82 19.92"/><polygon class="cls-4" points="104.82 15.72 100.75 15.72 100.75 9.43 65.13 9.43 65.13 15.72 60.04 15.72 60.04 34.59 65.13 34.59 65.13 39.83 100.75 39.83 100.75 34.59 104.82 34.59 104.82 15.72"/></g></g></svg>