<svg xmlns="http://www.w3.org/2000/svg" viewBox="0 0 149 149.02"><defs><style>.cls-1{fill:#cfd8dc;}.cls-2{fill:#b3b3b3;}.cls-3{fill:#9ea7aa;}.cls-4{fill:#fff;}.cls-5{opacity:0.5;}</style></defs><title>Interactable_Star_GreyedOut</title><g id="Ebene_2" data-name="Ebene 2"><g id="Ebene_1-2" data-name="Ebene 1"><polygon class="cls-1" points="148.87 13.43 135.88 13.43 135.88 0.44 13.28 0.44 13.28 13.43 0.29 13.43 0.29 136.03 13.28 136.03 13.28 149.02 135.88 149.02 135.88 136.03 148.87 136.03 148.87 13.43"/><polygon class="cls-2" points="131.61 35.8 114.47 35.8 114.47 18.66 39.66 18.66 39.66 35.8 22.51 35.8 22.51 110.61 39.66 110.61 39.66 127.76 114.47 127.76 114.47 110.61 131.61 110.61 131.61 35.8"/><polygon class="cls-3" points="90.78 51.65 90.78 42.3 86.32 42.3 86.32 32.95 80.74 32.95 80.74 28.79 76.28 28.79 72.13 28.79 72.13 32.95 66.93 32.95 66.93 42.3 62.77 42.3 62.77 51.65 33.68 51.65 33.68 61 38.88 61 38.88 66.2 44.07 66.2 44.07 71.39 48.23 71.39 48.23 75.55 53.42 75.55 53.42 81.78 48.23 81.78 48.23 90.09 45.11 90.09 45.11 98.41 40.95 98.41 40.95 108.8 53.42 108.8 53.42 104.64 62.77 104.64 62.77 99.44 71.09 99.44 71.09 93.21 76.28 93.21 81.86 93.21 81.86 99.44 90.78 99.44 90.78 104.64 100.81 104.64 100.81 108.8 114.19 108.8 114.19 98.41 109.73 98.41 109.73 90.09 106.39 90.09 106.39 81.78 100.81 81.78 100.81 75.55 106.39 75.55 106.39 71.39 110.85 71.39 110.85 66.2 116.42 66.2 116.42 61 122 61 122 51.65 90.78 51.65"/><polygon class="cls-1" points="90.78 48.53 90.78 39.18 86.32 39.18 86.32 29.83 80.74 29.83 80.74 25.68 76.28 25.68 72.13 25.68 72.13 29.83 66.93 29.83 66.93 39.18 62.77 39.18 62.77 48.53 33.68 48.53 33.68 57.88 38.88 57.88 38.88 63.08 44.07 63.08 44.07 68.27 48.23 68.27 48.23 72.43 53.42 72.43 53.42 78.66 48.23 78.66 48.23 86.98 45.11 86.98 45.11 95.29 40.95 95.29 40.95 105.68 53.42 105.68 53.42 101.52 62.77 101.52 62.77 96.33 71.09 96.33 71.09 90.09 76.28 90.09 81.86 90.09 81.86 96.33 90.78 96.33 90.78 101.52 100.81 101.52 100.81 105.68 114.19 105.68 114.19 95.29 109.73 95.29 109.73 86.98 106.39 86.98 106.39 78.66 100.81 78.66 100.81 72.43 106.39 72.43 106.39 68.27 110.85 68.27 110.85 63.08 116.42 63.08 116.42 57.88 122 57.88 122 48.53 90.78 48.53"/><rect class="cls-4" x="99.14" y="135.81" width="16.62" height="6.23"/><rect class="cls-4" x="120.96" y="135.81" width="8.31" height="6.23"/><polygon class="cls-5" points="149 13 136 13 136 0 13 0 13 13 0 13 0 136 13 136 13 149 136 149 136 136 149 136 149 13"/></g></g></svg>