<svg xmlns="http://www.w3.org/2000/svg" viewBox="0 0 99.54 106.81"><defs><style>.cls-1{fill:#b1bfca;}.cls-2{fill:#fff;}</style></defs><title>Interactable_Unknown_White</title><g id="Ebene_2" data-name="Ebene 2"><g id="Ebene_1-2" data-name="Ebene 1"><polygon class="cls-1" points="99.54 21.81 96.43 21.81 96.43 17.2 93.77 17.2 93.77 13.11 91.1 13.11 91.1 7.99 87.1 7.99 87.1 4.4 12.44 4.4 12.44 7.99 8 7.99 8 13.11 5.78 13.11 5.78 17.2 3.11 17.2 3.11 21.81 0 21.81 0 89.4 3.11 89.4 3.11 95.04 5.78 95.04 5.78 99.13 8 99.13 8 103.74 12.44 103.74 12.44 106.81 87.1 106.81 87.1 103.74 91.1 103.74 91.1 99.13 93.77 99.13 93.77 95.04 96.43 95.04 96.43 89.4 99.54 89.4 99.54 21.81"/><polygon class="cls-2" points="99.54 17.41 96.43 17.41 96.43 12.8 93.77 12.8 93.77 8.71 91.1 8.71 91.1 3.58 87.1 3.58 87.1 0 12.44 0 12.44 3.58 8 3.58 8 8.71 5.78 8.71 5.78 12.8 3.11 12.8 3.11 17.41 0 17.41 0 85 3.11 85 3.11 90.63 5.78 90.63 5.78 94.73 8 94.73 8 99.34 12.44 99.34 12.44 102.41 87.1 102.41 87.1 99.34 91.1 99.34 91.1 94.73 93.77 94.73 93.77 90.63 96.43 90.63 96.43 85 99.54 85 99.54 17.41"/></g></g></svg>