<svg xmlns="http://www.w3.org/2000/svg" viewBox="0 0 306 133"><defs><style>.cls-1{fill:#ffc93d;}.cls-2{fill:#d57b00;}.cls-3{fill:#32ef90;}.cls-4{fill:#039471;}.cls-5{fill:#eaa31e;}.cls-6{fill:#1bc281;}.cls-7{fill:#c885ee;}.cls-8{fill:#784aae;}.cls-9{fill:#ffad43;}.cls-10{fill:#c65310;}.cls-11{fill:#a067ce;}.cls-12{fill:#e27c26;}.cls-13{fill:#e0f2fd;}.cls-14{fill:#b1bfca;}.cls-15{fill:#95cfcf;}.cls-16{fill:#45bff8;}.cls-17{fill:#223d3d;}.cls-18{fill:#2aa0ef;}.cls-19{fill:#2773ba;}.cls-20{fill:#fa3c52;}.cls-21{fill:#960948;}</style></defs><title>Color_Color</title><g id="Ebene_2" data-name="Ebene 2"><g id="Ebene_1-2" data-name="Ebene 1"><rect class="cls-1" width="39" height="39"/><rect class="cls-2" y="47" width="39" height="39"/><rect class="cls-3" x="44.67" width="39" height="39"/><rect class="cls-4" x="44.67" y="47" width="39" height="39"/><rect class="cls-5" y="94" width="39" height="39"/><rect class="cls-6" x="44.67" y="94" width="39" height="39"/><rect class="cls-7" x="89.67" width="39" height="39"/><rect class="cls-8" x="89.67" y="47" width="39" height="39"/><rect class="cls-9" x="134.67" width="39" height="39"/><rect class="cls-10" x="134.67" y="47" width="39" height="39"/><rect class="cls-11" x="89.67" y="94" width="39" height="39"/><rect class="cls-12" x="134.67" y="94" width="39" height="39"/><rect class="cls-13" x="178.67" width="39" height="39"/><rect class="cls-14" x="178.67" y="47" width="39" height="39"/><rect class="cls-15" x="178.67" y="94" width="39" height="39"/><rect class="cls-16" x="223" width="39" height="39"/><rect class="cls-17" x="267" width="39" height="39"/><rect class="cls-18" x="223" y="47" width="39" height="39"/><rect class="cls-19" x="223" y="94" width="39" height="39"/><rect class="cls-20" x="267" y="47" width="39" height="39"/><rect class="cls-21" x="267" y="94" width="39" height="39"/></g></g></svg>