<svg xmlns="http://www.w3.org/2000/svg" viewBox="0 0 300.36 233.66"><defs><style>.cls-1{fill:#fff;}.cls-2{fill:none;}.cls-3{fill:#d78005;}.cls-4{fill:#ffc93d;}.cls-5{fill:#d57c00;}.cls-6{fill:#d59800;}.cls-7{fill:#b1bfca;}.cls-8{fill:#970449;}.cls-9{fill:#fa3c52;}.cls-10{fill:#f9fafa;}.cls-11{fill:#db7700;}.cls-12{fill:#ffae00;}.cls-13{fill:#4a271a;}.cls-14{fill:#4a361a;}.cls-15{fill:#ebffff;}.cls-16{fill:#d87700;}.cls-17,.cls-20,.cls-23{font-size:19.69px;font-family:Pixel-Miners, Pixel Miners;}.cls-17{fill:#d67d00;}.cls-18{fill:#55a4aa;}.cls-19{fill:#a9d8d2;}.cls-20{fill:#4698a0;}.cls-21{fill:#a43911;}.cls-22{fill:#e0702d;}.cls-23{fill:#9f3510;}</style></defs><title>ATLAS</title><g id="Ebene_2" data-name="Ebene 2"><g id="Ebene_1-2" data-name="Ebene 1"><polygon class="cls-1" points="13.38 2.1 13.38 34.01 34.48 18.06 13.38 2.1"/><polygon class="cls-1" points="223.1 16.06 202 0.1 202 7.67 192 0.1 192 32.01 202 24.45 202 32.01 223.1 16.06"/><path class="cls-1" d="M149.47,15.25c-7.91,0-5.93,11.87-5.93,11.87h11.87S157.38,15.25,149.47,15.25Z"/><circle class="cls-1" cx="149.47" cy="8.98" r="4.29"/><path class="cls-1" d="M162.82,17.39c-7.25,0-5.27,9.89-5.27,9.89H168.1S170.08,17.39,162.82,17.39Z"/><circle class="cls-1" cx="162.82" cy="11.45" r="3.96"/><rect class="cls-1" x="63.96" y="7.23" width="7.25" height="21.1"/><rect class="cls-1" x="54.07" y="14.49" width="7.25" height="13.85"/><rect class="cls-1" x="73.85" y="19.1" width="7.25" height="9.23"/><path class="cls-1" d="M97.8,16h9.89s0,4,4.61,4,4-4,4-4h9.89l-2,13.85H100.43Z"/><rect class="cls-1" x="100.19" y="10.59" width="15.63" height="4.08" rx="1.86" ry="1.86" transform="translate(40.56 -72.67) rotate(45)"/><rect class="cls-2" x="105.71" y="21.3" width="1.98" height="6.59" rx="0.9" ry="0.9"/><rect class="cls-2" x="110.98" y="21.3" width="1.98" height="6.59" rx="0.9" ry="0.9"/><rect class="cls-2" x="116.26" y="21.3" width="1.98" height="6.59" rx="0.9" ry="0.9"/><polygon class="cls-1" points="275 11.68 262.74 11.68 262.74 0 255.73 0 255.73 11.68 243.47 11.68 243.47 19.85 255.73 19.85 255.73 31.53 262.74 31.53 262.74 19.85 275 19.85 275 11.68"/><rect class="cls-1" x="11.88" y="49.24" width="7.34" height="5.5"/><rect class="cls-1" x="11.88" y="57.8" width="7.34" height="5.5"/><rect class="cls-1" x="21.05" y="49.24" width="7.34" height="5.5"/><rect class="cls-1" x="21.05" y="57.8" width="7.34" height="5.5"/><rect class="cls-1" x="30.83" y="49.24" width="7.34" height="5.5"/><rect class="cls-1" x="30.83" y="57.8" width="7.34" height="5.5"/><polygon class="cls-3" points="46.57 123.99 46.57 118.58 43.33 118.58 43.33 115.34 40.09 115.34 40.09 112.1 31.44 112.1 31.44 108.86 17.39 108.86 17.39 112.1 9.83 112.1 9.83 115.34 6.59 115.34 6.59 118.58 4.43 118.58 4.43 123.99 0.1 123.99 0.1 133.71 0.1 143.44 3.35 143.44 3.35 148.84 6.59 148.84 6.59 152.08 9.83 152.08 9.83 155.32 18.47 155.32 18.47 158.56 32.52 158.56 32.52 155.32 40.09 155.32 40.09 152.08 43.33 152.08 43.33 148.84 45.49 148.84 45.49 143.44 49.81 143.44 49.81 133.71 49.81 123.99 46.57 123.99"/><polygon class="cls-4" points="46.57 121.83 46.57 116.42 43.33 116.42 43.33 113.18 40.09 113.18 40.09 109.94 31.44 109.94 31.44 106.7 17.39 106.7 17.39 109.94 9.83 109.94 9.83 113.18 6.59 113.18 6.59 116.42 4.43 116.42 4.43 121.83 0.1 121.83 0.1 131.55 0.1 141.28 3.35 141.28 3.35 146.68 6.59 146.68 6.59 149.92 9.83 149.92 9.83 153.16 18.47 153.16 18.47 156.4 32.52 156.4 32.52 153.16 40.09 153.16 40.09 149.92 43.33 149.92 43.33 146.68 45.49 146.68 45.49 141.28 49.81 141.28 49.81 131.55 49.81 121.83 46.57 121.83"/><polygon class="cls-5" points="22.8 126.15 28.2 126.15 34.68 126.15 34.68 121.83 28.2 121.83 22.8 121.83 16.31 121.83 16.31 123.99 14.15 123.99 14.15 132.63 14.15 140.41 16.31 140.41 16.31 142.36 22.8 142.36 28.2 142.36 34.68 142.36 34.68 138.47 28.2 138.47 22.8 138.47 22.8 132.63 22.8 126.15"/><rect class="cls-6" x="16.31" y="121.83" width="18.37" height="1.08"/><rect class="cls-6" x="14.15" y="123.99" width="2.16" height="1.08"/><polygon class="cls-7" points="114.57 125.99 114.57 120.58 111.33 120.58 111.33 117.34 108.08 117.34 108.08 114.1 99.44 114.1 99.44 110.86 85.39 110.86 85.39 114.1 77.83 114.1 77.83 117.34 74.59 117.34 74.59 120.58 72.43 120.58 72.43 125.99 68.1 125.99 68.1 135.71 68.1 145.44 71.35 145.44 71.35 150.84 74.59 150.84 74.59 154.08 77.83 154.08 77.83 157.32 86.47 157.32 86.47 160.56 100.52 160.56 100.52 157.32 108.08 157.32 108.08 154.08 111.33 154.08 111.33 150.84 113.49 150.84 113.49 145.44 117.81 145.44 117.81 135.71 117.81 125.99 114.57 125.99"/><polygon class="cls-1" points="114.57 123.83 114.57 118.42 111.33 118.42 111.33 115.18 108.08 115.18 108.08 111.94 99.44 111.94 99.44 108.7 85.39 108.7 85.39 111.94 77.83 111.94 77.83 115.18 74.59 115.18 74.59 118.42 72.43 118.42 72.43 123.83 68.1 123.83 68.1 133.55 68.1 143.28 71.35 143.28 71.35 148.68 74.59 148.68 74.59 151.92 77.83 151.92 77.83 155.16 86.47 155.16 86.47 158.4 100.52 158.4 100.52 155.16 108.08 155.16 108.08 151.92 111.33 151.92 111.33 148.68 113.49 148.68 113.49 143.28 117.81 143.28 117.81 133.55 117.81 123.83 114.57 123.83"/><polygon class="cls-7" points="90.8 128.15 96.2 128.15 102.68 128.15 102.68 123.83 96.2 123.83 90.8 123.83 84.31 123.83 84.31 125.99 82.15 125.99 82.15 134.63 82.15 142.41 84.31 142.41 84.31 144.36 90.8 144.36 96.2 144.36 102.68 144.36 102.68 140.47 96.2 140.47 90.8 140.47 90.8 134.63 90.8 128.15"/><rect class="cls-7" x="84.31" y="123.83" width="18.37" height="1.08"/><rect class="cls-7" x="82.15" y="125.99" width="2.16" height="1.08"/><polygon class="cls-1" points="68.88 59.51 68.88 51.74 70.29 51.74 70.29 46.1 59 46.1 59 51.74 61.12 51.74 61.12 59.51 59.71 59.51 59.71 65.86 71 65.86 71 59.51 68.88 59.51"/><rect class="cls-1" x="61.82" y="38.33" width="6.35" height="6.35"/><path class="cls-1" d="M128.57,48.1c-.31-2.32-2.83-4-5.64-3.74l-5,.45v0H106.44v0l-5.3-.39c-2.81-.21-5.3,1.51-5.55,3.84L93.78,65.2l.3,0c5.56.41,10.42,0,11-7.54h14.6c1.75,7.57,5.62,7.84,11.16,7.33h0Z"/><polygon class="cls-8" points="44 189.33 44 186.33 41 186.33 41 182.33 38 182.33 35 182.33 32 182.33 29 182.33 26 182.33 26 186.33 24 186.33 22 186.33 22 182.33 19 182.33 16 182.33 13 182.33 10 182.33 7 182.33 7 186.33 4 186.33 4 189.33 0 189.33 0 201.33 4 201.33 4 207.33 7 207.33 7 209.33 10 209.33 10 213.33 13 213.33 13 216.33 16 216.33 16 219.33 19 219.33 19 222.33 22 222.33 24 222.33 26 222.33 29 222.33 29 219.33 32 219.33 32 216.33 35 216.33 35 213.33 38 213.33 38 209.33 41 209.33 41 207.33 44 207.33 44 201.33 48 201.33 48 189.33 44 189.33"/><polygon class="cls-9" points="44 186.33 44 183.33 41 183.33 41 179.33 38 179.33 35 179.33 32 179.33 29 179.33 26 179.33 26 183.33 24 183.33 22 183.33 22 179.33 19 179.33 16 179.33 13 179.33 10 179.33 7 179.33 7 183.33 4 183.33 4 186.33 0 186.33 0 198.33 4 198.33 4 204.33 7 204.33 7 206.33 10 206.33 10 210.33 13 210.33 13 213.33 16 213.33 16 216.33 19 216.33 19 219.33 22 219.33 24 219.33 26 219.33 29 219.33 29 216.33 32 216.33 32 213.33 35 213.33 35 210.33 38 210.33 38 206.33 41 206.33 41 204.33 44 204.33 44 198.33 48 198.33 48 186.33 44 186.33"/><rect class="cls-1" x="10" y="186.33" width="2" height="2"/><rect class="cls-1" x="8" y="188.33" width="2" height="2"/><path class="cls-10" d="M162.52,54l4-4.17a3.21,3.21,0,0,0,0-4.46l-1.11-1.14a3,3,0,0,0-4.33,0l-4,4.17-3.68-3.8a3.5,3.5,0,0,0-5.06,0L148,45a3.78,3.78,0,0,0,0,5.21l3.69,3.8L147.6,58.2a3.21,3.21,0,0,0,0,4.46l1.11,1.14a3,3,0,0,0,4.32,0l4.05-4.17,3.69,3.79a3.5,3.5,0,0,0,5.06,0l.37-.39a3.76,3.76,0,0,0,0-5.21Z"/><polygon class="cls-7" points="113 192.33 113 189.33 110 189.33 110 185.33 107 185.33 104 185.33 101 185.33 98 185.33 95 185.33 95 189.33 93 189.33 91 189.33 91 185.33 88 185.33 85 185.33 82 185.33 79 185.33 76 185.33 76 189.33 73 189.33 73 192.33 69 192.33 69 204.33 73 204.33 73 210.33 76 210.33 76 212.33 79 212.33 79 216.33 82 216.33 82 219.33 85 219.33 85 222.33 88 222.33 88 225.33 91 225.33 93 225.33 95 225.33 98 225.33 98 222.33 101 222.33 101 219.33 104 219.33 104 216.33 107 216.33 107 212.33 110 212.33 110 210.33 113 210.33 113 204.33 117 204.33 117 192.33 113 192.33"/><polygon class="cls-1" points="113 189.33 113 186.33 110 186.33 110 182.33 107 182.33 104 182.33 101 182.33 98 182.33 95 182.33 95 186.33 93 186.33 91 186.33 91 182.33 88 182.33 85 182.33 82 182.33 79 182.33 76 182.33 76 186.33 73 186.33 73 189.33 69 189.33 69 201.33 73 201.33 73 207.33 76 207.33 76 209.33 79 209.33 79 213.33 82 213.33 82 216.33 85 216.33 85 219.33 88 219.33 88 222.33 91 222.33 93 222.33 95 222.33 98 222.33 98 219.33 101 219.33 101 216.33 104 216.33 104 213.33 107 213.33 107 209.33 110 209.33 110 207.33 113 207.33 113 201.33 117 201.33 117 189.33 113 189.33"/><rect class="cls-7" x="79" y="189.33" width="2" height="2"/><rect class="cls-7" x="77" y="191.33" width="2" height="2"/><polygon class="cls-4" points="171.71 195.49 171.71 190.18 142.55 190.18 142.55 195.49 138.52 195.49 138.52 210.33 176.73 210.33 176.73 195.49 171.71 195.49"/><polygon class="cls-11" points="178.74 198.67 173.45 198.67 173.45 193.37 142.76 193.37 142.76 198.67 138.52 198.67 138.52 229.41 142.76 229.41 142.76 233.66 173.45 233.66 173.45 229.41 178.74 229.41 178.74 198.67"/><polygon class="cls-12" points="178.74 195.49 173.45 195.49 173.45 190.18 142.76 190.18 142.76 195.49 138.52 195.49 138.52 226.23 142.76 226.23 142.76 230.47 173.45 230.47 173.45 226.23 178.74 226.23 178.74 195.49"/><polygon class="cls-4" points="173.72 195.82 173.72 190.18 142.55 190.18 142.55 195.82 138.52 195.82 138.52 208.21 178.74 208.21 178.74 195.82 173.72 195.82"/><rect class="cls-1" x="145.93" y="195.49" width="3.18" height="3.18"/><path class="cls-13" d="M165,206.09V204h-2.11v-2.12h-2.12v-1.06h-5.29v1.06h-2.12V204h-2.12v2.12h-1.05v4.24h1.05v2.12h2.12v1.06h2.12v8.66a.87.87,0,0,0,.88.88h3.53a.87.87,0,0,0,.88-.88v-8.66h2.12v-1.06H165v-2.12H166v-4.24Z"/><path class="cls-14" d="M163.93,206.39v-1.82h-1.82v-1.81H160.3v-.91h-4.54v.91H154v1.81h-1.82v1.82h-.91V210h.91v1.81H154v.91h1.81v7.42a.76.76,0,0,0,.76.76h3a.76.76,0,0,0,.76-.76v-7.42h1.81v-.91h1.82V210h.9v-3.64Z"/><polygon class="cls-15" points="166.43 175.34 166.43 173.22 164.69 173.22 164.69 171.1 158.63 171.1 151.22 171.1 151.22 173.22 149.11 173.22 149.11 175.34 146.99 175.34 146.99 190.18 151.22 190.18 151.22 178.52 154.4 178.52 154.4 176.4 158.63 176.4 162.1 176.4 162.1 178.52 164.69 178.52 164.69 190.18 168.16 190.18 168.16 175.34 166.43 175.34"/><polygon class="cls-16" points="181.37 127.09 181.37 122.17 178.42 122.17 178.42 119.21 174.48 119.21 174.48 116.26 169.56 116.26 169.56 113.3 156.75 113.3 156.75 116.26 151.83 116.26 151.83 119.21 147.89 119.21 147.89 122.17 144.94 122.17 144.94 127.09 142.97 127.09 142.97 133.98 142.97 140.87 145.92 140.87 145.92 145.8 148.88 145.8 148.88 148.75 152.82 148.75 152.82 151.71 157.74 151.71 157.74 154.66 170.54 154.66 170.54 151.71 175.46 151.71 175.46 148.75 179.4 148.75 179.4 145.8 182.36 145.8 182.36 140.87 184.33 140.87 184.33 133.98 184.33 127.09 181.37 127.09"/><polygon class="cls-4" points="181.37 125.12 181.37 120.2 178.42 120.2 178.42 117.24 174.48 117.24 174.48 114.29 169.56 114.29 169.56 111.33 156.75 111.33 156.75 114.29 151.83 114.29 151.83 117.24 147.89 117.24 147.89 120.2 144.94 120.2 144.94 125.12 142.97 125.12 142.97 132.01 142.97 138.91 145.92 138.91 145.92 143.83 148.88 143.83 148.88 146.78 152.82 146.78 152.82 149.74 157.74 149.74 157.74 152.69 170.54 152.69 170.54 149.74 175.46 149.74 175.46 146.78 179.4 146.78 179.4 143.83 182.36 143.83 182.36 138.91 184.33 138.91 184.33 132.01 184.33 125.12 181.37 125.12"/><text class="cls-17" transform="translate(156.35 141.45)">1</text><polygon class="cls-18" points="239.37 127.92 239.37 123 236.42 123 236.42 120.05 232.48 120.05 232.48 117.09 227.56 117.09 227.56 114.14 214.75 114.14 214.75 117.09 209.83 117.09 209.83 120.05 205.89 120.05 205.89 123 202.94 123 202.94 127.92 200.97 127.92 200.97 134.82 200.97 141.71 203.92 141.71 203.92 146.63 206.88 146.63 206.88 149.59 210.82 149.59 210.82 152.54 215.74 152.54 215.74 155.5 228.54 155.5 228.54 152.54 233.46 152.54 233.46 149.59 237.4 149.59 237.4 146.63 240.36 146.63 240.36 141.71 242.33 141.71 242.33 134.82 242.33 127.92 239.37 127.92"/><polygon class="cls-19" points="239.37 125.96 239.37 121.03 236.42 121.03 236.42 118.08 232.48 118.08 232.48 115.12 227.56 115.12 227.56 112.17 214.75 112.17 214.75 115.12 209.83 115.12 209.83 118.08 205.89 118.08 205.89 121.03 202.94 121.03 202.94 125.96 200.97 125.96 200.97 132.85 200.97 139.74 203.92 139.74 203.92 144.66 206.88 144.66 206.88 147.62 210.82 147.62 210.82 150.57 215.74 150.57 215.74 153.53 228.54 153.53 228.54 150.57 233.46 150.57 233.46 147.62 237.4 147.62 237.4 144.66 240.36 144.66 240.36 139.74 242.33 139.74 242.33 132.85 242.33 125.96 239.37 125.96"/><text class="cls-20" transform="translate(214.35 142.29)">2</text><polygon class="cls-21" points="297.4 127.76 297.4 122.84 294.45 122.84 294.45 119.88 290.51 119.88 290.51 116.93 285.59 116.93 285.59 113.98 272.79 113.98 272.79 116.93 267.86 116.93 267.86 119.88 263.92 119.88 263.92 122.84 260.97 122.84 260.97 127.76 259 127.76 259 134.66 259 141.55 261.95 141.55 261.95 146.47 264.91 146.47 264.91 149.43 268.85 149.43 268.85 152.38 273.77 152.38 273.77 155.33 286.57 155.33 286.57 152.38 291.5 152.38 291.5 149.43 295.43 149.43 295.43 146.47 298.39 146.47 298.39 141.55 300.36 141.55 300.36 134.66 300.36 127.76 297.4 127.76"/><polygon class="cls-22" points="297.4 125.79 297.4 120.87 294.45 120.87 294.45 117.92 290.51 117.92 290.51 114.96 285.59 114.96 285.59 112.01 272.79 112.01 272.79 114.96 267.86 114.96 267.86 117.92 263.92 117.92 263.92 120.87 260.97 120.87 260.97 125.79 259 125.79 259 132.69 259 139.58 261.95 139.58 261.95 144.5 264.91 144.5 264.91 147.46 268.85 147.46 268.85 150.41 273.77 150.41 273.77 153.36 286.57 153.36 286.57 150.41 291.5 150.41 291.5 147.46 295.43 147.46 295.43 144.5 298.39 144.5 298.39 139.58 300.36 139.58 300.36 132.69 300.36 125.79 297.4 125.79"/><text class="cls-23" transform="translate(272.38 142.13)">3</text></g></g></svg>