<svg xmlns="http://www.w3.org/2000/svg" viewBox="0 0 48 43"><defs><style>.cls-1{fill:#b1bfca;}.cls-2{fill:#fff;}</style></defs><title>Icon_Heart_White</title><g id="Ebene_2" data-name="Ebene 2"><g id="Ebene_1-2" data-name="Ebene 1"><polygon class="cls-1" points="44 10 44 7 41 7 41 3 38 3 35 3 32 3 29 3 26 3 26 7 24 7 22 7 22 3 19 3 16 3 13 3 10 3 7 3 7 7 4 7 4 10 0 10 0 22 4 22 4 28 7 28 7 30 10 30 10 34 13 34 13 37 16 37 16 40 19 40 19 43 22 43 24 43 26 43 29 43 29 40 32 40 32 37 35 37 35 34 38 34 38 30 41 30 41 28 44 28 44 22 48 22 48 10 44 10"/><polygon class="cls-2" points="44 7 44 4 41 4 41 0 38 0 35 0 32 0 29 0 26 0 26 4 24 4 22 4 22 0 19 0 16 0 13 0 10 0 7 0 7 4 4 4 4 7 0 7 0 19 4 19 4 25 7 25 7 27 10 27 10 31 13 31 13 34 16 34 16 37 19 37 19 40 22 40 24 40 26 40 29 40 29 37 32 37 32 34 35 34 35 31 38 31 38 27 41 27 41 25 44 25 44 19 48 19 48 7 44 7"/><rect class="cls-1" x="10" y="7" width="2" height="2"/><rect class="cls-1" x="8" y="9" width="2" height="2"/></g></g></svg>