<svg xmlns="http://www.w3.org/2000/svg" viewBox="0 0 41.36 43.33"><defs><style>.cls-1{fill:#a43911;}.cls-2{fill:#e0702d;}.cls-3{font-size:19.69px;fill:#9f3510;font-family:Pixel-Miners, Pixel Miners;}</style></defs><title>Icon_3rd</title><g id="Ebene_2" data-name="Ebene 2"><g id="Ebene_1-2" data-name="Ebene 1"><polygon class="cls-1" points="38.4 15.76 38.4 10.83 35.45 10.83 35.45 7.88 31.51 7.88 31.51 4.92 26.59 4.92 26.59 1.97 13.79 1.97 13.79 4.92 8.86 4.92 8.86 7.88 4.92 7.88 4.92 10.83 1.97 10.83 1.97 15.76 0 15.76 0 22.65 0 29.54 2.95 29.54 2.95 34.46 5.91 34.46 5.91 37.42 9.85 37.42 9.85 40.37 14.77 40.37 14.77 43.33 27.57 43.33 27.57 40.37 32.49 40.37 32.49 37.42 36.43 37.42 36.43 34.46 39.39 34.46 39.39 29.54 41.36 29.54 41.36 22.65 41.36 15.76 38.4 15.76"/><polygon class="cls-2" points="38.4 13.79 38.4 8.86 35.45 8.86 35.45 5.91 31.51 5.91 31.51 2.95 26.59 2.95 26.59 0 13.79 0 13.79 2.95 8.86 2.95 8.86 5.91 4.92 5.91 4.92 8.86 1.97 8.86 1.97 13.79 0 13.79 0 20.68 0 27.57 2.95 27.57 2.95 32.49 5.91 32.49 5.91 35.45 9.85 35.45 9.85 38.4 14.77 38.4 14.77 41.36 27.57 41.36 27.57 38.4 32.49 38.4 32.49 35.45 36.43 35.45 36.43 32.49 39.39 32.49 39.39 27.57 41.36 27.57 41.36 20.68 41.36 13.79 38.4 13.79"/><text class="cls-3" transform="translate(13.38 30.12)">3</text></g></g></svg>