<svg xmlns="http://www.w3.org/2000/svg" viewBox="0 0 49.71 51.87"><defs><style>.cls-1{fill:#d78005;}.cls-2{fill:#ffc93d;}.cls-3{fill:#d57c00;}.cls-4{fill:#d59800;}</style></defs><title>Icon_Coin_Filled</title><g id="Ebene_2" data-name="Ebene 2"><g id="Ebene_1-2" data-name="Ebene 1"><polygon class="cls-1" points="46.47 17.29 46.47 11.89 43.22 11.89 43.22 8.64 39.98 8.64 39.98 5.4 31.34 5.4 31.34 2.16 17.29 2.16 17.29 5.4 9.72 5.4 9.72 8.64 6.48 8.64 6.48 11.89 4.32 11.89 4.32 17.29 0 17.29 0 27.01 0 36.74 3.24 36.74 3.24 42.14 6.48 42.14 6.48 45.38 9.72 45.38 9.72 48.63 18.37 48.63 18.37 51.87 32.42 51.87 32.42 48.63 39.98 48.63 39.98 45.38 43.22 45.38 43.22 42.14 45.38 42.14 45.38 36.74 49.71 36.74 49.71 27.01 49.71 17.29 46.47 17.29"/><polygon class="cls-2" points="46.47 15.13 46.47 9.72 43.22 9.72 43.22 6.48 39.98 6.48 39.98 3.24 31.34 3.24 31.34 0 17.29 0 17.29 3.24 9.72 3.24 9.72 6.48 6.48 6.48 6.48 9.72 4.32 9.72 4.32 15.13 0 15.13 0 24.85 0 34.58 3.24 34.58 3.24 39.98 6.48 39.98 6.48 43.22 9.72 43.22 9.72 46.47 18.37 46.47 18.37 49.71 32.42 49.71 32.42 46.47 39.98 46.47 39.98 43.22 43.22 43.22 43.22 39.98 45.38 39.98 45.38 34.58 49.71 34.58 49.71 24.85 49.71 15.13 46.47 15.13"/><polygon class="cls-3" points="22.69 19.45 28.09 19.45 34.58 19.45 34.58 15.13 28.09 15.13 22.69 15.13 16.21 15.13 16.21 17.29 14.05 17.29 14.05 25.93 14.05 33.71 16.21 33.71 16.21 35.66 22.69 35.66 28.09 35.66 34.58 35.66 34.58 31.77 28.09 31.77 22.69 31.77 22.69 25.93 22.69 19.45"/><rect class="cls-4" x="16.21" y="15.13" width="18.37" height="1.08"/><rect class="cls-4" x="14.05" y="17.29" width="2.16" height="1.08"/></g></g></svg>