<svg xmlns="http://www.w3.org/2000/svg" viewBox="0 0 40.22 62.56"><defs><style>.cls-1{fill:#ffc93d;}.cls-2{fill:#db7700;}.cls-3{fill:#ffae00;}.cls-4{fill:#fff;}.cls-5{fill:#4a271a;}.cls-6{fill:#4a361a;}.cls-7{fill:#ebffff;}</style></defs><title>Icon_Lock</title><g id="Ebene_2" data-name="Ebene 2"><g id="Ebene_1-2" data-name="Ebene 1"><polygon class="cls-1" points="33.18 24.39 33.18 19.09 4.02 19.09 4.02 24.39 0 24.39 0 39.23 38.21 39.23 38.21 24.39 33.18 24.39"/><polygon class="cls-2" points="40.22 27.57 34.93 27.57 34.93 22.27 4.23 22.27 4.23 27.57 0 27.57 0 58.32 4.23 58.32 4.23 62.56 34.93 62.56 34.93 58.32 40.22 58.32 40.22 27.57"/><polygon class="cls-3" points="40.22 24.39 34.93 24.39 34.93 19.09 4.23 19.09 4.23 24.39 0 24.39 0 55.13 4.23 55.13 4.23 59.38 34.93 59.38 34.93 55.13 40.22 55.13 40.22 24.39"/><polygon class="cls-1" points="35.19 24.72 35.19 19.09 4.02 19.09 4.02 24.72 0 24.72 0 37.11 40.22 37.11 40.22 24.72 35.19 24.72"/><rect class="cls-4" x="7.41" y="24.39" width="3.18" height="3.18"/><path class="cls-5" d="M26.46,35V32.87H24.34V30.75H22.23V29.69h-5.3v1.06H14.82v2.12H12.7V35H11.64v4.24H12.7v2.12h2.12v1.06h2.11v8.66a.88.88,0,0,0,.89.88h3.52a.88.88,0,0,0,.89-.88V42.41h2.11V41.35h2.12V39.23h1.06V35Z"/><path class="cls-6" d="M25.4,35.29V33.47H23.59V31.66H21.77v-.91H17.24v.91H15.42v1.81H13.61v1.82H12.7v3.64h.91v1.82h1.81v.9h1.82v7.43a.76.76,0,0,0,.75.75h3a.76.76,0,0,0,.75-.75V41.65h1.82v-.9H25.4V38.93h.91V35.29Z"/><polygon class="cls-7" points="27.9 4.24 27.9 2.12 26.17 2.12 26.17 0 20.11 0 12.7 0 12.7 2.12 10.58 2.12 10.58 4.24 8.47 4.24 8.47 19.09 12.7 19.09 12.7 7.42 15.88 7.42 15.88 5.3 20.11 5.3 23.57 5.3 23.57 7.42 26.17 7.42 26.17 19.09 29.64 19.09 29.64 4.24 27.9 4.24"/></g></g></svg>