<svg xmlns="http://www.w3.org/2000/svg" viewBox="0 0 20.77 21.39"><defs><style>.cls-1{fill:#f9fafa;}</style></defs><title>Icon_Cross</title><g id="Ebene_2" data-name="Ebene 2"><g id="Ebene_1-2" data-name="Ebene 1"><path class="cls-1" d="M15.82,10.69l4.05-4.17a3.22,3.22,0,0,0,0-4.45L18.76.92a3,3,0,0,0-4.33,0l-4,4.17L6.7,1.3a3.5,3.5,0,0,0-5.06,0l-.38.39a3.78,3.78,0,0,0,0,5.21L5,10.69l-4,4.18a3.2,3.2,0,0,0,0,4.45L2,20.47a3,3,0,0,0,4.32,0l4.05-4.17,3.69,3.79a3.5,3.5,0,0,0,5.06,0l.37-.39a3.76,3.76,0,0,0,0-5.21Z"/></g></g></svg>