<svg xmlns="http://www.w3.org/2000/svg" viewBox="0 0 426.71 330"><defs><style>.cls-1{fill:#8ccaca;}.cls-2{fill:#e0f2fd;}</style></defs><title>2</title><g id="Ebene_2" data-name="Ebene 2"><g id="Ebene_1-2" data-name="Ebene 1"><polygon class="cls-1" points="415.68 24.6 415.68 16.12 406.35 16.12 406.35 5.94 19.51 5.94 19.51 16.12 11.03 16.12 11.03 24.6 0 24.6 0 167.97 0 311.34 11.03 311.34 11.03 319.82 20.36 319.82 20.36 330 407.2 330 407.2 319.82 415.68 319.82 415.68 311.34 426.71 311.34 426.71 167.97 426.71 24.6 415.68 24.6"/><polygon class="cls-2" points="415.68 18.66 415.68 10.18 406.35 10.18 406.35 0 19.51 0 19.51 10.18 11.03 10.18 11.03 18.66 0 18.66 0 162.03 0 305.4 11.03 305.4 11.03 313.88 20.36 313.88 20.36 324.06 407.2 324.06 407.2 313.88 415.68 313.88 415.68 305.4 426.71 305.4 426.71 162.03 426.71 18.66 415.68 18.66"/></g></g></svg>