<svg xmlns="http://www.w3.org/2000/svg" viewBox="0 0 501 210"><defs><style>.cls-1{fill:#97cfcf;}.cls-2{fill:#e0f2fd;}</style></defs><title>4</title><g id="Ebene_2" data-name="Ebene 2"><g id="Ebene_1-2" data-name="Ebene 1"><polygon class="cls-1" points="489.79 36.89 489.79 22 480 22 480 10 464 10 23 10 23 22 13 22 13 33 0 33 0 110 0 183.11 11.21 183.11 11.21 198 21 198 21 210 37 210 478 210 478 198 488 198 488 187 501 187 501 110 501 36.89 489.79 36.89"/><polygon class="cls-2" points="489.79 26.89 489.79 12 480 12 480 0 464 0 23 0 23 12 13 12 13 23 0 23 0 100 0 173.11 11.21 173.11 11.21 188 21 188 21 200 37 200 478 200 478 188 488 188 488 177 501 177 501 100 501 26.89 489.79 26.89"/></g></g></svg>