<svg xmlns="http://www.w3.org/2000/svg" viewBox="0 0 245.06 338.39"><defs><style>.cls-1{fill:#b1bfca;}.cls-2{fill:#fff;}</style></defs><title>5</title><g id="Ebene_2" data-name="Ebene 2"><g id="Ebene_1-2" data-name="Ebene 1"><polygon class="cls-1" points="245.06 21.32 236.1 21.32 236.1 14.39 227.58 14.39 227.58 5.86 17.47 5.86 17.47 14.39 8.96 14.39 8.96 21.32 0 21.32 0 318.14 8.96 318.14 8.96 328.26 17.47 328.26 17.47 338.39 227.58 338.39 227.58 328.26 236.1 328.26 236.1 318.14 245.06 318.14 245.06 21.32"/><polygon class="cls-2" points="245.06 15.45 236.1 15.45 236.1 8.53 227.58 8.53 227.58 0 17.47 0 17.47 8.53 8.96 8.53 8.96 15.45 0 15.45 0 312.28 8.96 312.28 8.96 322.4 17.47 322.4 17.47 332.53 227.58 332.53 227.58 322.4 236.1 322.4 236.1 312.28 245.06 312.28 245.06 15.45"/></g></g></svg>