<svg xmlns="http://www.w3.org/2000/svg" viewBox="0 0 1477 704.87"><defs><style>.cls-1{fill:#b1bfca;}.cls-2{fill:#e0f2fd;}.cls-3{fill:#fff;}.cls-4{fill:#97cfcf;}.cls-5{fill:#8ccaca;}</style></defs><title>ATLAS</title><g id="Ebene_2" data-name="Ebene 2"><g id="Ebene_1-2" data-name="Ebene 1"><polygon class="cls-1" points="245.06 21.32 236.1 21.32 236.1 14.39 227.58 14.39 227.58 5.86 17.47 5.86 17.47 14.39 8.96 14.39 8.96 21.32 0 21.32 0 318.14 8.96 318.14 8.96 328.26 17.47 328.26 17.47 338.39 227.58 338.39 227.58 328.26 236.1 328.26 236.1 318.14 245.06 318.14 245.06 21.32"/><polygon class="cls-2" points="245.06 15.45 236.1 15.45 236.1 8.53 227.58 8.53 227.58 0 17.47 0 17.47 8.53 8.96 8.53 8.96 15.45 0 15.45 0 312.28 8.96 312.28 8.96 322.4 17.47 322.4 17.47 332.53 227.58 332.53 227.58 322.4 236.1 322.4 236.1 312.28 245.06 312.28 245.06 15.45"/><polygon class="cls-1" points="248 387.8 239.04 387.8 239.04 380.87 230.53 380.87 230.53 372.34 20.42 372.34 20.42 380.87 11.9 380.87 11.9 387.8 2.94 387.8 2.94 684.62 11.9 684.62 11.9 694.75 20.42 694.75 20.42 704.87 230.53 704.87 230.53 694.75 239.04 694.75 239.04 684.62 248 684.62 248 387.8"/><polygon class="cls-3" points="248 381.94 239.04 381.94 239.04 375.01 230.53 375.01 230.53 366.48 20.42 366.48 20.42 375.01 11.9 375.01 11.9 381.94 2.94 381.94 2.94 678.76 11.9 678.76 11.9 688.88 20.42 688.88 20.42 699.01 230.53 699.01 230.53 688.88 239.04 688.88 239.04 678.76 248 678.76 248 381.94"/><polygon class="cls-4" points="1465.79 102.94 1465.79 88.04 1456 88.04 1456 76.04 1440 76.04 999 76.04 999 88.04 989 88.04 989 99.04 976 99.04 976 176.04 976 249.15 987.21 249.15 987.21 264.04 997 264.04 997 276.04 1013 276.04 1454 276.04 1454 264.04 1464 264.04 1464 253.04 1477 253.04 1477 176.04 1477 102.94 1465.79 102.94"/><polygon class="cls-2" points="1465.79 92.94 1465.79 78.04 1456 78.04 1456 66.04 1440 66.04 999 66.04 999 78.04 989 78.04 989 89.04 976 89.04 976 166.04 976 239.15 987.21 239.15 987.21 254.04 997 254.04 997 266.04 1013 266.04 1454 266.04 1454 254.04 1464 254.04 1464 243.04 1477 243.04 1477 166.04 1477 92.94 1465.79 92.94"/><polygon class="cls-1" points="1465.79 461.94 1465.79 447.04 1456 447.04 1456 435.04 1440 435.04 999 435.04 999 447.04 989 447.04 989 458.04 976 458.04 976 535.04 976 608.15 987.21 608.15 987.21 623.04 997 623.04 997 635.04 1013 635.04 1454 635.04 1454 623.04 1464 623.04 1464 612.04 1477 612.04 1477 535.04 1477 461.94 1465.79 461.94"/><polygon class="cls-3" points="1465.79 451.94 1465.79 437.04 1456 437.04 1456 425.04 1440 425.04 999 425.04 999 437.04 989 437.04 989 448.04 976 448.04 976 525.04 976 598.15 987.21 598.15 987.21 613.04 997 613.04 997 625.04 1013 625.04 1454 625.04 1454 613.04 1464 613.04 1464 602.04 1477 602.04 1477 525.04 1477 451.94 1465.79 451.94"/><polygon class="cls-5" points="804.68 28.64 804.68 20.16 795.35 20.16 795.35 9.98 408.51 9.98 408.51 20.16 400.03 20.16 400.03 28.64 389 28.64 389 172.01 389 315.38 400.03 315.38 400.03 323.86 409.36 323.86 409.36 334.04 796.2 334.04 796.2 323.86 804.68 323.86 804.68 315.38 815.71 315.38 815.71 172.01 815.71 28.64 804.68 28.64"/><polygon class="cls-2" points="804.68 22.71 804.68 14.22 795.35 14.22 795.35 4.04 408.51 4.04 408.51 14.22 400.03 14.22 400.03 22.71 389 22.71 389 166.07 389 309.44 400.03 309.44 400.03 317.92 409.36 317.92 409.36 328.1 796.2 328.1 796.2 317.92 804.68 317.92 804.68 309.44 815.71 309.44 815.71 166.07 815.71 22.71 804.68 22.71"/><polygon class="cls-1" points="804.68 395.64 804.68 387.16 795.35 387.16 795.35 376.98 408.51 376.98 408.51 387.16 400.03 387.16 400.03 395.64 389 395.64 389 539.01 389 682.38 400.03 682.38 400.03 690.86 409.36 690.86 409.36 701.04 796.2 701.04 796.2 690.86 804.68 690.86 804.68 682.38 815.71 682.38 815.71 539.01 815.71 395.64 804.68 395.64"/><polygon class="cls-3" points="804.68 389.71 804.68 381.22 795.35 381.22 795.35 371.04 408.51 371.04 408.51 381.22 400.03 381.22 400.03 389.71 389 389.71 389 533.07 389 676.44 400.03 676.44 400.03 684.92 409.36 684.92 409.36 695.1 796.2 695.1 796.2 684.92 804.68 684.92 804.68 676.44 815.71 676.44 815.71 533.07 815.71 389.71 804.68 389.71"/></g></g></svg>