<svg xmlns="http://www.w3.org/2000/svg" viewBox="0 0 688.37 698.76"><defs><style>.cls-1{fill:#d57b00;}.cls-2{fill:#ffc93d;}.cls-3{fill:#039471;}.cls-4{fill:#32ef90;}.cls-5{fill:#784aae;}.cls-6{fill:#c885ee;}.cls-7{fill:#2773ba;}.cls-8{fill:#45bff8;}.cls-9{fill:#b1bfca;}.cls-10{fill:#fff;}</style></defs><title>ATLAS</title><g id="Ebene_2" data-name="Ebene 2"><g id="Ebene_1-2" data-name="Ebene 1"><polygon class="cls-1" points="688.37 31.09 673.77 31.09 673.77 12.28 14.68 12.28 14.68 31.09 0.07 31.09 0.07 111.95 14.68 111.95 14.68 130.76 673.77 130.76 673.77 111.95 688.37 111.95 688.37 31.09"/><polygon class="cls-2" points="688.3 18.81 673.7 18.81 673.7 0 14.61 0 14.61 18.81 0 18.81 0 99.67 14.61 99.67 14.61 118.48 673.7 118.48 673.7 99.67 688.3 99.67 688.3 18.81"/><polygon class="cls-3" points="688.37 173.09 673.77 173.09 673.77 154.28 14.68 154.28 14.68 173.09 0.07 173.09 0.07 253.95 14.68 253.95 14.68 272.76 673.77 272.76 673.77 253.95 688.37 253.95 688.37 173.09"/><polygon class="cls-4" points="688.3 160.81 673.7 160.81 673.7 142 14.61 142 14.61 160.81 0 160.81 0 241.67 14.61 241.67 14.61 260.48 673.7 260.48 673.7 241.67 688.3 241.67 688.3 160.81"/><polygon class="cls-5" points="688.37 315.08 673.77 315.08 673.77 296.28 14.68 296.28 14.68 315.08 0.07 315.08 0.07 395.95 14.68 395.95 14.68 414.76 673.77 414.76 673.77 395.95 688.37 395.95 688.37 315.08"/><polygon class="cls-6" points="688.3 302.81 673.7 302.81 673.7 284 14.61 284 14.61 302.81 0 302.81 0 383.67 14.61 383.67 14.61 402.48 673.7 402.48 673.7 383.67 688.3 383.67 688.3 302.81"/><polygon class="cls-7" points="688.37 457.08 673.77 457.08 673.77 438.28 14.68 438.28 14.68 457.08 0.07 457.08 0.07 537.95 14.68 537.95 14.68 556.76 673.77 556.76 673.77 537.95 688.37 537.95 688.37 457.08"/><polygon class="cls-8" points="688.3 444.81 673.7 444.81 673.7 426 14.61 426 14.61 444.81 0 444.81 0 525.67 14.61 525.67 14.61 544.48 673.7 544.48 673.7 525.67 688.3 525.67 688.3 444.81"/><polygon class="cls-9" points="688.37 599.09 673.77 599.09 673.77 580.28 14.68 580.28 14.68 599.09 0.07 599.09 0.07 679.95 14.68 679.95 14.68 698.76 673.77 698.76 673.77 679.95 688.37 679.95 688.37 599.09"/><polygon class="cls-10" points="688.3 586.81 673.7 586.81 673.7 568 14.61 568 14.61 586.81 0 586.81 0 667.67 14.61 667.67 14.61 686.48 673.7 686.48 673.7 667.67 688.3 667.67 688.3 586.81"/></g></g></svg>